<?xml version="1.0" standalone="no"?>
<!DOCTYPE svg PUBLIC "-//W3C//DTD SVG 20010904//EN"
 "http://www.w3.org/TR/2001/REC-SVG-20010904/DTD/svg10.dtd">
<svg version="1.0" xmlns="http://www.w3.org/2000/svg"
 width="256.000000pt" height="256.000000pt" viewBox="0 0 256.000000 256.000000"
 preserveAspectRatio="xMidYMid meet">

<g transform="translate(0.000000,256.000000) scale(0.100000,-0.100000)"
fill="currentColor" stroke="none">
<path d="M760 2515 c-88 -28 -143 -104 -143 -196 0 -99 72 -188 166 -205 33
-5 37 -4 37 14 0 15 -9 21 -35 26 -19 4 -48 18 -65 33 -86 72 -81 198 12 266
38 29 125 34 173 12 41 -20 81 -74 91 -123 5 -22 12 -32 25 -32 25 0 25 32 0
85 -48 104 -156 154 -261 120z"/>
<path d="M1195 2511 c-168 -78 -164 -314 7 -385 51 -22 78 -21 78 3 0 14 -11
22 -44 30 -82 20 -138 110 -122 197 9 45 67 109 112 124 88 29 193 -28 215
-116 8 -33 16 -44 30 -44 25 0 25 32 0 85 -49 106 -173 154 -276 106z"/>
<path d="M1645 2511 c-168 -78 -164 -314 7 -385 51 -22 78 -21 78 3 0 14 -11
22 -44 30 -83 21 -138 110 -121 198 9 50 78 119 128 128 88 17 177 -38 198
-121 8 -33 16 -44 30 -44 25 0 25 32 0 85 -49 106 -173 154 -276 106z"/>
<path d="M430 2107 l0 -184 850 -2 850 -1 0 185 0 185 -255 0 c-153 0 -255 -4
-255 -9 0 -6 10 -22 23 -37 18 -21 35 -28 75 -32 l52 -5 0 -80 0 -80 -63 5
c-70 6 -109 23 -163 71 -37 32 -84 116 -84 150 0 15 -14 17 -145 17 -84 0
-145 -4 -145 -9 0 -6 10 -22 23 -37 18 -21 35 -28 75 -32 l52 -5 0 -80 0 -80
-63 5 c-70 6 -109 23 -163 71 -37 32 -84 116 -84 150 0 15 -14 17 -145 17 -84
0 -145 -4 -145 -9 0 -6 10 -22 23 -37 18 -21 35 -28 75 -32 l52 -5 0 -80 0
-80 -63 5 c-72 6 -128 32 -174 80 -33 34 -72 110 -73 141 0 14 -10 17 -65 17
l-65 0 0 -183z"/>
<path d="M430 950 l0 -920 535 0 535 0 2 313 3 312 313 3 312 2 0 605 0 605
-850 0 -850 0 0 -920z m900 560 c20 -20 20 -31 18 -583 l-3 -562 -70 0 -70 0
-5 505 -5 505 -90 5 -90 5 -3 59 c-2 32 -1 65 2 72 4 11 37 14 151 14 132 0
147 -2 165 -20z"/>
<path d="M1565 587 c-3 -7 -4 -124 -3 -260 l3 -247 260 260 260 260 -258 0
c-199 0 -259 -3 -262 -13z"/>
</g>
</svg>
