<?xml version="1.0" encoding="UTF-8"?>
<svg version="1.0" xmlns="http://www.w3.org/2000/svg"
     width="225pt" height="225pt" viewBox="35 40 155 155"
     preserveAspectRatio="xMidYMid meet">
    <g transform="translate(0,225) scale(0.1,-0.1)"
       stroke="none">

        <!-- Машина (белая) -->
        <path d="M1502 1612 c52 -26 82 -60 125 -146 29 -56 31 -59 42 -38 9 18 20 22 54 21 126 -3 144 -70 27 -100 l-48 -12 51 -31 c64 -38 113 -114 122 -190 4 -28 5 -108 3 -178 -3 -115 -5 -129 -25 -150 -18 -19 -23 -36 -23 -81 0 -77 -20 -97 -95 -97 -73 0 -95 21 -95 90 l0 50 -515 0 -515 0 0 -48 c0 -73 -18 -92 -91 -92 -80 0 -99 19 -99 97 0 45 -5 62 -22 81 -21 21 -23 35 -26 150 -2 70 -1 150 3 178 9 76 58 152 122 190 l51 31 -48 12 c-117 30 -99 97 27 100 34 1 45 -3 54 -21 11 -21 13 -19 36 28 60 120 106 160 196 174 29 5 185 8 347 7 286 -2 296 -3 342 -25z" fill="white"/>

        <!-- Нижняя часть машины -->
        <path d="M818 1581 c-26 -4 -60 -16 -75 -27 -26 -19 -129 -192 -120 -200 2 -3 55 0 118 6 63 5 236 10 384 10 149 0 321 -5 384 -10 63 -6 116 -9 118 -6 9 8 -95 181 -120 200 -15 11 -50 23 -79 27 -64 9 -544 9 -610 0z" fill="white"/>

        <!-- Левая фара -->
        <path d="M432 1158 c-18 -18 -15 -73 6 -96 15 -18 31 -21 162 -24 137 -3 145 -2 145 16 0 31 -44 55 -160 86 -123 34 -136 35 -153 18z" fill="#6666FF"/>

        <!-- Правая фара -->
        <path d="M1661 1140 c-111 -30 -156 -55 -156 -86 0 -18 8 -19 145 -16 131 3 147 6 163 24 20 23 23 78 5 96 -17 17 -39 14 -157 -18z" fill="#6666FF"/>

    </g>
</svg>
