<?xml version="1.0" standalone="no"?>
<!DOCTYPE svg PUBLIC "-//W3C//DTD SVG 20010904//EN"
 "http://www.w3.org/TR/2001/REC-SVG-20010904/DTD/svg10.dtd">
<svg version="1.0" xmlns="http://www.w3.org/2000/svg"
 width="225.000000pt" height="225.000000pt" viewBox="0 0 225.000000 225.000000"
 preserveAspectRatio="xMidYMid meet">

<g transform="translate(0.000000,225.000000) scale(0.100000,-0.100000)"
fill="#000000" stroke="none">
<path d="M880 2219 c-104 -47 -180 -161 -180 -269 l0 -50 -162 0 c-176 0 -235
-9 -255 -36 -7 -10 -13 -44 -13 -76 l0 -58 -45 0 -45 0 0 -85 0 -85 85 0 85 0
0 -257 c0 -142 3 -451 6 -688 l7 -430 25 -48 c26 -48 61 -81 119 -111 29 -14
93 -16 618 -16 474 0 592 3 619 14 46 19 104 72 129 120 22 41 22 45 27 726
l5 685 82 3 82 3 6 52 c4 29 5 66 3 82 -3 27 -7 30 -44 33 l-42 3 -4 60 c-3
44 -10 65 -26 82 -21 21 -32 22 -211 26 l-188 3 -6 58 c-10 112 -75 209 -172
255 -52 24 -60 25 -257 25 -182 0 -208 -3 -248 -21z m461 -186 c25 -24 33 -42
37 -82 l5 -51 -258 0 -258 0 6 45 c4 25 14 57 23 71 33 49 55 54 241 51 l173
-2 31 -32z m389 -1143 l0 -665 -30 -28 -31 -27 -549 2 -549 3 -23 23 -23 23
-3 656 c-1 362 0 663 2 670 4 11 120 13 606 11 l601 -3 -1 -665z"/>
<path d="M700 865 l0 -515 85 0 85 0 0 515 0 515 -85 0 -85 0 0 -515z"/>
<path d="M1040 865 l0 -515 85 0 85 0 0 515 0 515 -85 0 -85 0 0 -515z"/>
<path d="M1390 865 l0 -515 80 0 80 0 0 515 0 515 -80 0 -80 0 0 -515z"/>
</g>
</svg>
