<?xml version="1.0" standalone="no"?>
<!DOCTYPE svg PUBLIC "-//W3C//DTD SVG 20010904//EN"
 "http://www.w3.org/TR/2001/REC-SVG-20010904/DTD/svg10.dtd">
<svg version="1.0" xmlns="http://www.w3.org/2000/svg"
 width="200.000000pt" height="200.000000pt" viewBox="13 10 170.000000 170.000000"
 preserveAspectRatio="xMidYMid meet">

<g transform="translate(0.000000,200.000000) scale(0.100000,-0.100000)"
fill="white" stroke="none">
<path d="M425 1726 c-106 -47 -113 -183 -11 -236 32 -18 51 -21 79 -16 135 25
152 207 24 255 -36 14 -55 13 -92 -3z"/>
<path d="M1394 1726 c-90 -41 -108 -157 -33 -220 82 -69 205 -20 216 86 10 97
-95 174 -183 134z"/>
<path d="M312 1423 c-18 -9 -43 -30 -55 -47 -21 -29 -22 -42 -25 -253 l-3
-222 26 -7 c51 -13 55 2 55 202 0 116 4 184 10 184 7 0 10 -170 10 -489 l0
-490 26 -20 c33 -26 58 -27 84 -1 19 19 20 33 20 240 0 140 4 220 10 220 6 0
10 -78 10 -215 0 -216 0 -216 25 -240 29 -30 55 -32 86 -6 l24 19 3 492 c2
315 6 489 12 485 6 -4 10 -82 10 -190 0 -194 0 -195 48 -195 9 0 42 -26 74
-57 l58 -57 0 -238 c0 -225 1 -239 20 -258 11 -11 26 -20 34 -20 31 0 41 33
47 149 l5 116 2 -117 c2 -91 5 -120 18 -132 18 -19 28 -20 55 -6 18 10 19 24
19 254 l0 243 85 84 c47 46 88 95 92 109 21 87 84 314 88 318 19 19 8 -35 -55
-266 -38 -144 -70 -264 -70 -267 0 -3 32 -5 70 -5 l70 0 0 -215 c0 -216 0
-216 25 -240 29 -30 55 -32 86 -6 24 19 24 22 27 240 2 130 7 221 13 221 5 0
9 -88 9 -218 0 -233 2 -245 50 -257 18 -4 34 0 53 15 l27 21 0 220 0 219 70 0
c39 0 70 4 70 9 0 5 -31 125 -69 267 -39 142 -68 261 -65 264 10 9 23 -26 60
-167 20 -79 43 -148 50 -154 8 -6 25 -8 39 -5 35 9 33 30 -20 225 -65 244 -76
255 -268 259 -122 2 -135 1 -172 -21 -55 -31 -75 -75 -125 -262 l-42 -160 -56
-57 -56 -58 -81 0 -81 0 -61 63 -62 62 -3 167 c-3 185 -7 198 -78 246 -30 20
-44 22 -164 22 -100 0 -139 -4 -164 -17z"/>
<path d="M865 1058 c-62 -55 -27 -158 54 -158 44 0 76 20 88 57 30 88 -73 160
-142 101z"/>
</g>
</svg>
