<?xml version="1.0" encoding="UTF-8"?>
<svg version="1.1" xmlns="http://www.w3.org/2000/svg" width="100" height="100" viewBox="0 0 500.000000 500.000000">
<path d="M0 0 C1.88971841 1.38950151 1.88971841 1.38950151 4.375 0.4296875 C6.59548149 -0.77292806 8.62368496 -2.01349156 10.67578125 -3.48046875 C44.00143447 -26.00817183 85.6192536 -36.88712836 125.6159668 -29.32836914 C127.70734437 -28.89055945 129.78494351 -28.41384775 131.86328125 -27.91796875 C132.60191406 -27.7463623 133.34054687 -27.57475586 134.1015625 -27.39794922 C171.85381499 -18.40204408 206.43134623 4.51297716 227.86328125 37.08203125 C228.51554687 38.06171875 229.1678125 39.04140625 229.83984375 40.05078125 C243.29079139 61.03218221 252.88671375 85.5704069 253.1015625 110.6875 C253.10963425 111.60678787 253.11770599 112.52607574 253.12602234 113.47322083 C253.13980731 115.41889598 253.15055425 117.36459475 253.15844727 119.31030273 C253.16986736 121.25992142 253.19015695 123.20951138 253.2199707 125.15893555 C253.83969163 165.80778148 238.12914408 200.85217824 210.40234375 230.35546875 C208.39543853 232.5105762 206.49209604 234.69281856 204.61328125 236.95703125 C200.79266549 241.36335462 196.47774965 245.21657308 192.19433594 249.16210938 C186.63176813 254.3097221 181.22610789 259.60203889 175.86328125 264.95703125 C175.07469727 265.74118408 174.28611328 266.52533691 173.47363281 267.33325195 C169.94466953 270.87083893 166.50897885 274.43428465 163.25390625 278.2265625 C159.94434181 282.06808908 156.35762955 285.48235446 152.61328125 288.89453125 C146.21556903 294.8119004 139.96751175 300.86183758 133.80078125 307.01953125 C133.01606445 307.79981689 132.23134766 308.58010254 131.42285156 309.3840332 C127.90049866 312.91505257 124.47403561 316.47466759 121.22265625 320.2578125 C118.09228669 323.89069229 114.73072237 327.12051011 111.17578125 330.33203125 C104.75857018 336.22932939 98.53011587 342.29872142 92.36328125 348.45703125 C91.52708252 349.28879883 90.69088379 350.12056641 89.8293457 350.97753906 C86.16132246 354.6540216 82.57673072 358.34937472 79.19140625 362.2890625 C76.05425117 365.93455289 72.67751712 369.17232797 69.11328125 372.39453125 C62.89235029 378.11351722 56.84278917 383.98625849 50.86328125 389.95703125 C50.07469727 390.74118408 49.28611328 391.52533691 48.47363281 392.33325195 C44.94981189 395.86568399 41.51881873 399.42329305 38.26953125 403.2109375 C34.88017278 407.14570998 31.19470133 410.64563326 27.36328125 414.14453125 C19.31656363 421.58317738 11.56108435 429.28468759 3.86328125 437.08203125 C-0.00237492 435.4990656 -2.40770555 433.02566397 -5.3125 430.06640625 C-5.80074753 429.57295715 -6.28899506 429.07950806 -6.79203796 428.57110596 C-8.34928282 426.99611237 -9.89968333 425.41460735 -11.44921875 423.83203125 C-13.48354595 421.76091405 -15.52124631 419.69319705 -17.5625 417.62890625 C-18.05412628 417.13096558 -18.54575256 416.6330249 -19.05227661 416.11999512 C-21.58752169 413.57117881 -24.15744938 411.13604941 -26.9296875 408.84765625 C-29.26369131 406.91342186 -31.23561984 404.89970975 -33.19921875 402.58984375 C-38.22068812 396.69690285 -43.76303878 391.30683581 -49.24316406 385.84521484 C-51.13592413 383.95782362 -53.02326804 382.06513452 -54.91015625 380.171875 C-56.13118987 378.95150211 -57.35253362 377.73143943 -58.57421875 376.51171875 C-59.40578491 375.67711624 -59.40578491 375.67711624 -60.25415039 374.82565308 C-63.03209274 372.06400318 -65.86043837 369.42921724 -68.85327148 366.90063477 C-71.20000079 364.91707865 -73.29149221 362.94627786 -75.234375 360.5546875 C-80.09896708 354.8460853 -85.45176073 349.61791612 -90.76098633 344.32739258 C-92.57032808 342.5234104 -94.37426194 340.7141446 -96.17773438 338.90429688 C-103.17879878 331.87758879 -103.17879878 331.87758879 -110.546875 325.2421875 C-113.70669789 322.55018148 -116.33078516 319.62791401 -119.015625 316.46972656 C-123.39987584 311.53441657 -128.14124421 306.93072347 -132.81591797 302.27246094 C-134.63625089 300.45749773 -136.45116377 298.63723745 -138.265625 296.81640625 C-139.44108571 295.64160627 -140.61685654 294.4671165 -141.79296875 293.29296875 C-142.59172424 292.49117691 -142.59172424 292.49117691 -143.40661621 291.67318726 C-146.12993639 288.96645718 -148.90823507 286.39079013 -151.84179688 283.91210938 C-154.17959686 281.93482292 -156.26576532 279.97495303 -158.19921875 277.58984375 C-163.22068812 271.69690285 -168.76303878 266.30683581 -174.24316406 260.84521484 C-176.13592413 258.95782362 -178.02326804 257.06513452 -179.91015625 255.171875 C-181.13118987 253.95150211 -182.35253362 252.73143943 -183.57421875 251.51171875 C-184.12859619 250.95531708 -184.68297363 250.39891541 -185.25415039 249.82565308 C-188.56330796 246.53590351 -191.97717298 243.43352286 -195.54931641 240.43093872 C-197.90122667 238.43238471 -200.08201882 236.38578572 -202.13671875 234.08203125 C-202.13671875 233.09203125 -202.13671875 232.10203125 -202.13671875 231.08203125 C-200.89882599 231.1331884 -200.89882599 231.1331884 -199.63592529 231.18537903 C-191.81073398 231.48972341 -183.99089126 231.69055185 -176.16016769 231.77893543 C-172.13425493 231.82792953 -168.11714552 231.91504237 -164.09472656 232.09350586 C-146.99969673 233.5049581 -146.99969673 233.5049581 -131.56195068 228.11386108 C-127.41090387 223.18811445 -125.09433759 217.6486702 -123.02734375 211.59829712 C-121.91000825 208.4415104 -120.35596663 205.69617864 -118.61328125 202.84375 C-117.66267634 201.152391 -116.71215357 199.46098584 -115.76171875 197.76953125 C-109.01403916 185.79907142 -102.09417937 173.93148878 -95.13671875 162.08203125 C-94.61287598 161.18967773 -94.0890332 160.29732422 -93.54931641 159.37792969 C-90.74934069 154.61013572 -87.94520802 149.84481489 -85.13671875 145.08203125 C-81.73244585 147.35154651 -81.59705807 147.92269557 -80.52661133 151.67944336 C-80.09550301 153.1451754 -80.09550301 153.1451754 -79.65568542 154.64051819 C-79.34649673 155.72336594 -79.03730804 156.80621368 -78.71875 157.921875 C-78.01040471 160.30973543 -77.29740926 162.69621976 -76.58056641 165.08154297 C-76.38913276 165.71912442 -76.19769911 166.35670588 -76.00046444 167.01360798 C-73.59952702 174.94976278 -70.93641022 182.79717632 -68.2734375 190.6484375 C-68.01373295 191.41553417 -67.7540284 192.18263084 -67.48645401 192.97297287 C-65.87484486 197.73248185 -64.25817348 202.49025606 -62.63952637 207.24737549 C-60.48721759 213.5755629 -58.34166457 219.90604785 -56.19519424 226.2362175 C-55.66528737 227.79896897 -55.13530675 229.36169543 -54.60525131 230.92439651 C-50.98314359 241.60447193 -47.37635891 252.28955504 -43.80314064 262.98609734 C-43.34026024 264.37154502 -42.87690217 265.75683324 -42.41300011 267.14193916 C-39.81966823 274.8886022 -37.30976443 282.65476859 -34.93510437 290.47169495 C-34.36071835 292.34966047 -33.75773999 294.21896753 -33.13671875 296.08203125 C-27.70483214 287.37721114 -22.5019096 278.57618934 -17.44921875 269.64453125 C-12.4168764 260.77451208 -7.30905545 251.95973365 -2.07421875 243.20703125 C2.00738327 236.37066948 5.74167062 229.51130626 9.2109375 222.34375 C12.0162351 216.8061058 15.28726146 211.56290829 18.53320312 206.27587891 C20.05828508 203.76038947 21.5477501 201.22544241 23.03515625 198.6875 C23.5763208 197.7692041 24.11748535 196.8509082 24.67504883 195.90478516 C25.74785037 194.08332635 26.81551415 192.25883045 27.87768555 190.43115234 C28.36664307 189.60566895 28.85560059 188.78018555 29.359375 187.9296875 C29.79435303 187.18726807 30.22933105 186.44484863 30.67749023 185.67993164 C31.26445679 184.88897095 31.26445679 184.88897095 31.86328125 184.08203125 C32.52328125 184.08203125 33.18328125 184.08203125 33.86328125 184.08203125 C34.14824463 184.58726318 34.43320801 185.09249512 34.72680664 185.61303711 C39.72399142 194.45573104 44.74761672 203.27836942 50 211.97265625 C50.34301651 212.54081558 50.68603302 213.10897491 51.03944397 213.6943512 C52.73164304 216.49382776 54.4307642 219.28886425 56.13696289 222.07983398 C56.7530542 223.09505127 57.36914551 224.11026855 58.00390625 225.15625 C58.55594727 226.05947998 59.10798828 226.96270996 59.67675781 227.89331055 C60.86328125 230.08203125 60.86328125 230.08203125 60.86328125 232.08203125 C69.62597202 232.02073272 78.38833928 231.94356401 87.15070534 231.84631634 C91.21975333 231.80165147 95.28870211 231.76238699 99.35791016 231.7355957 C103.28736056 231.70952367 107.21642834 231.66909421 111.14564133 231.61884499 C112.6422384 231.60220252 114.13890162 231.59067193 115.63557816 231.58441734 C117.73743741 231.57474724 119.83832362 231.54665598 121.93994141 231.5144043 C123.13463043 231.50330124 124.32931946 231.49219818 125.56021118 231.48075867 C130.52954952 230.88088903 133.78747063 229.24506976 137.17578125 225.58203125 C140.08660338 221.26970216 140.38332473 217.15727041 139.86328125 212.08203125 C138.41098852 207.88651891 136.62018265 205.29912357 132.84448242 202.89584351 C128.56985265 201.13996624 123.87304001 201.67400113 119.33203125 201.7890625 C117.05469317 201.79893493 114.77734841 201.80735418 112.5 201.81445312 C108.92459095 201.84765441 105.35069268 201.89479083 101.77587891 201.96850586 C98.31449113 202.03160035 94.85641493 202.03898393 91.39453125 202.0390625 C89.79587219 202.09475151 89.79587219 202.09475151 88.16491699 202.15156555 C80.92222517 202.10505118 80.92222517 202.10505118 77.93728638 199.22137451 C76.36931845 196.90770306 75.09222205 194.59007872 73.86328125 192.08203125 C73.24694824 191.05674316 72.63061523 190.03145508 71.99560547 188.97509766 C71.21467529 187.59330322 71.21467529 187.59330322 70.41796875 186.18359375 C69.82177734 185.13655273 69.22558594 184.08951172 68.61132812 183.01074219 C67.99322266 181.92051758 67.37511719 180.83029297 66.73828125 179.70703125 C62.12700946 171.62704314 57.41069647 163.64908288 52.36328125 155.83203125 C48.27450472 149.48770113 44.72582044 143.13419622 41.45703125 136.32421875 C37.51544789 126.99016129 37.51544789 126.99016129 30.86328125 120.08203125 C30.64929688 120.86578125 30.4353125 121.64953125 30.21484375 122.45703125 C28.40145508 127.3206864 25.85348153 131.60974132 23.23828125 136.08203125 C22.43076416 137.47881104 22.43076416 137.47881104 21.60693359 138.90380859 C20.52715967 140.77139487 19.44532793 142.63779306 18.36132812 144.50292969 C16.39013585 147.8966186 14.43627421 151.29998962 12.48828125 154.70703125 C11.86953125 155.78597656 11.25078125 156.86492187 10.61328125 157.9765625 C8.3637619 161.9684551 6.2121362 166.00950153 4.08984375 170.0703125 C2.86328125 172.08203125 2.86328125 172.08203125 0.86328125 173.08203125 C0.72019531 173.81115723 0.57710937 174.5402832 0.4296875 175.29150391 C-0.23827631 178.58237733 -1.50520663 180.83395884 -3.19921875 183.73046875 C-3.82739502 184.81215332 -4.45557129 185.89383789 -5.1027832 187.00830078 C-5.78039049 188.15809646 -6.45837554 189.30766959 -7.13671875 190.45703125 C-7.82229879 191.62848606 -8.50743743 192.8001993 -9.19213867 193.97216797 C-10.54479731 196.28420814 -11.90269653 198.59292042 -13.26318359 200.90039062 C-14.87451903 203.63676324 -16.47204936 206.3803715 -18.0625 209.12890625 C-18.85730981 210.48872757 -19.65280803 211.84814692 -20.44921875 213.20703125 C-20.80306641 213.8211084 -21.15691406 214.43518555 -21.52148438 215.06787109 C-22.33718702 216.44080774 -23.2284944 217.76846573 -24.13671875 219.08203125 C-24.79671875 219.08203125 -25.45671875 219.08203125 -26.13671875 219.08203125 C-27.75826761 214.26773129 -29.37545027 209.45199203 -30.98901367 204.63500977 C-31.53573703 203.00474816 -32.08354648 201.3748503 -32.63256836 199.74536133 C-35.70493204 190.62401765 -38.65006773 181.4900561 -41.3238678 172.24368286 C-43.44586527 164.93888216 -45.83511861 157.72765149 -48.26171875 150.51953125 C-48.76038126 149.03121128 -49.25891121 147.5428469 -49.75732422 146.05444336 C-51.54344671 140.72793801 -53.33945276 135.40478532 -55.13671875 130.08203125 C-55.51747559 128.95414185 -55.89823242 127.82625244 -56.29052734 126.66418457 C-59.06117293 118.45908718 -61.83637569 110.25554307 -64.61519623 102.05321121 C-65.26034446 100.14858847 -65.90513042 98.24384337 -66.54986572 96.33908081 C-67.76739577 92.74376369 -68.98688891 89.14911881 -70.20703125 85.5546875 C-70.57425293 84.46975006 -70.94147461 83.38481262 -71.31982422 82.26699829 C-71.83270996 80.75823624 -71.83270996 80.75823624 -72.35595703 79.21899414 C-72.65285431 78.34384659 -72.94975159 77.46869904 -73.25564575 76.56703186 C-74.15066175 74.04270605 -75.12533321 71.56176826 -76.13671875 69.08203125 C-76.45721191 69.65308594 -76.77770508 70.22414063 -77.10791016 70.8125 C-97.65460243 107.38517617 -97.65460243 107.38517617 -107.19921875 122.64453125 C-114.03115476 133.6108148 -120.1822486 144.99952375 -126.48046875 156.27734375 C-131.03605344 164.42585911 -135.6881211 172.51501863 -140.38671875 180.58203125 C-140.97767334 181.59773193 -141.56862793 182.61343262 -142.17749023 183.65991211 C-143.03129272 185.12182983 -143.03129272 185.12182983 -143.90234375 186.61328125 C-144.40540039 187.47501953 -144.90845703 188.33675781 -145.42675781 189.22460938 C-145.99104492 190.16755859 -146.55533203 191.11050781 -147.13671875 192.08203125 C-147.3719072 192.7728479 -147.60709564 193.46366455 -147.84941101 194.17541504 C-148.97285114 196.86175727 -149.84724028 198.25110184 -152.13671875 200.08203125 C-157.83173264 201.24934914 -163.46186336 201.01224419 -169.25 200.86328125 C-170.94676546 200.84835307 -172.64356549 200.83696876 -174.34037781 200.82897949 C-178.79814511 200.7984895 -183.25381407 200.7199576 -187.71075439 200.63134766 C-192.26195894 200.54938601 -196.81350393 200.51294624 -201.36523438 200.47265625 C-210.28998254 200.38695705 -219.21317591 200.25049098 -228.13671875 200.08203125 C-229.40606387 197.58255809 -230.67099498 195.08100387 -231.93359375 192.578125 C-232.46509033 191.53319885 -232.46509033 191.53319885 -233.00732422 190.46716309 C-239.37299435 177.81996674 -243.24999686 164.8938852 -246.13671875 151.08203125 C-246.31251465 150.3864209 -246.48831055 149.69081055 -246.66943359 148.97412109 C-247.35847565 144.70954839 -247.34051 140.47789822 -247.375 136.1640625 C-247.38307175 135.1928093 -247.39114349 134.22155609 -247.39945984 133.22087097 C-247.41327699 131.16069303 -247.42400972 129.10049243 -247.43188477 127.0402832 C-247.44331289 124.96632007 -247.46361582 122.89238415 -247.4934082 120.81860352 C-247.68711067 107.31245549 -246.78994877 95.1067013 -243.13671875 82.08203125 C-242.88510986 81.15076416 -242.63350098 80.21949707 -242.37426758 79.26000977 C-241.76765089 77.13426856 -241.10512859 75.04728292 -240.38671875 72.95703125 C-240.13849365 72.22532715 -239.89026855 71.49362305 -239.63452148 70.73974609 C-236.84505766 62.82077298 -233.13266048 55.44942332 -229.13671875 48.08203125 C-228.58242187 47.02371094 -228.028125 45.96539062 -227.45703125 44.875 C-222.98417464 36.7104316 -217.27647 30.00986997 -211.13671875 23.08203125 C-210.54117188 22.375625 -209.945625 21.66921875 -209.33203125 20.94140625 C-196.02063996 5.17965935 -181.305255 -5.34594132 -163.13671875 -14.91796875 C-162.16726318 -15.4294043 -162.16726318 -15.4294043 -161.17822266 -15.95117188 C-112.97541487 -40.94426998 -41.7103507 -37.44018683 0 0 Z " fill="#ffffff" transform="translate(247.13671875,46.91796875)"/>
</svg>
