<?xml version="1.0" standalone="no"?>
<!DOCTYPE svg PUBLIC "-//W3C//DTD SVG 20010904//EN"
 "http://www.w3.org/TR/2001/REC-SVG-20010904/DTD/svg10.dtd">
<svg version="1.0" xmlns="http://www.w3.org/2000/svg"
 width="512.000000pt" height="512.000000pt" viewBox="70 70 370.000000 370.000000"
 preserveAspectRatio="xMidYMid meet">

<g transform="translate(0.000000,512.000000) scale(0.100000,-0.100000)"
fill="#ffffff" stroke="none">
<path d="M926 4169 l-26 -20 0 -1588 0 -1588 23 -21 c32 -30 81 -29 112 3 24
23 25 31 25 135 l0 110 195 0 195 0 0 -94 c0 -101 12 -151 40 -166 30 -16 76
-12 101 9 24 19 24 21 27 255 l3 236 944 0 944 0 3 -236 c3 -234 3 -236 27
-255 25 -21 71 -25 101 -9 28 15 40 65 40 166 l0 94 195 0 195 0 0 -110 c0
-104 1 -112 25 -135 32 -33 83 -34 113 -2 l22 23 0 1587 c0 1574 0 1587 -20
1607 -29 29 -84 27 -115 -5 -24 -23 -25 -30 -25 -145 l0 -120 -195 0 -195 0 0
104 c0 109 -9 150 -38 172 -25 19 -76 17 -103 -5 -24 -19 -24 -21 -27 -255
l-3 -236 -944 0 -944 0 -3 236 c-3 234 -3 236 -27 255 -26 21 -78 25 -102 6
-32 -24 -39 -56 -39 -166 l0 -111 -195 0 -195 0 0 120 c0 115 -1 122 -25 145
-30 31 -73 32 -109 4z m514 -604 l0 -165 -195 0 -195 0 0 165 0 165 195 0 195
0 0 -165z m2630 0 l0 -165 -195 0 -195 0 0 165 0 165 195 0 195 0 0 -165z
m-560 -1005 l0 -950 -950 0 -950 0 0 950 0 950 950 0 950 0 0 -950z m-2070
495 l0 -165 -195 0 -195 0 0 165 0 165 195 0 195 0 0 -165z m2630 0 l0 -165
-195 0 -195 0 0 165 0 165 195 0 195 0 0 -165z m-2630 -505 l0 -170 -195 0
-195 0 0 170 0 170 195 0 195 0 0 -170z m2630 0 l0 -170 -195 0 -195 0 0 170
0 170 195 0 195 0 0 -170z m-2630 -505 l0 -165 -195 0 -195 0 0 165 0 165 195
0 195 0 0 -165z m2630 0 l0 -165 -195 0 -195 0 0 165 0 165 195 0 195 0 0
-165z m-2630 -505 l0 -170 -195 0 -195 0 0 170 0 170 195 0 195 0 0 -170z
m2630 0 l0 -170 -195 0 -195 0 0 170 0 170 195 0 195 0 0 -170z"/>
</g>
</svg>
