<?xml version="1.0" encoding="UTF-8"?>
<svg version="1.1" xmlns="http://www.w3.org/2000/svg" viewBox="0 0 512 512" width="100" height="100">
<path d="M0 0 C1.77065826 -0.00855011 1.77065826 -0.00855011 3.5770874 -0.01727295 C6.0715649 -0.02668545 8.56605462 -0.03324195 11.06054688 -0.03710938 C14.80622217 -0.04673836 18.55132992 -0.07776702 22.296875 -0.109375 C40.5225171 -0.19054917 58.21509735 0.97965833 75.859375 5.828125 C76.79281738 6.07900879 77.72625977 6.32989258 78.68798828 6.58837891 C103.37114385 13.44367414 125.64189792 23.36762431 147.35302734 36.81494141 C149.34964439 38.04332969 151.35805877 39.24566684 153.37890625 40.43359375 C164.57440742 47.08714783 174.03159777 55.44261319 183.609375 64.203125 C184.62434877 65.11400742 185.64000126 66.024134 186.65625 66.93359375 C191.72692615 71.49317982 196.59006865 76.07818593 200.97265625 81.3203125 C202.73078803 83.34279345 204.60973154 85.16466006 206.546875 87.015625 C215.80629165 96.22192836 222.34734993 107.86567866 229.17822266 118.90185547 C230.44623715 120.940802 231.73273892 122.96617484 233.02734375 124.98828125 C255.82845293 161.09128015 266.43345321 204.26682699 266.13085938 246.64160156 C266.10938261 250.20186405 266.13082696 253.76010962 266.15625 257.3203125 C266.20801914 300.1319198 254.49258054 347.96024626 228.41015625 382.6953125 C226.4692852 385.39821752 224.74909622 388.18549667 223.02050781 391.02685547 C217.12423369 400.71742899 210.66221316 409.16223468 202.609375 417.203125 C201.04586819 418.87965021 199.50027378 420.57168929 197.95458984 422.26464844 C193.37659227 427.27280248 188.83607357 432.16702557 183.609375 436.51171875 C181.14876489 438.59266441 178.83189005 440.80800547 176.484375 443.015625 C167.1436136 451.50605502 156.86462792 458.31344448 145.8359375 464.40625 C143.08399149 465.93881073 140.40804063 467.53990825 137.734375 469.203125 C111.54179969 484.93567835 81.76796021 494.85330143 51.609375 499.203125 C50.44494873 499.3789209 49.28052246 499.5547168 48.08081055 499.73583984 C42.49510456 500.41970767 36.90162558 500.38494042 31.28125 500.40625 C29.5049118 500.41480011 29.5049118 500.41480011 27.69268799 500.42352295 C25.18803796 500.43294341 22.6833757 500.43949515 20.17871094 500.44335938 C16.41318003 500.45298743 12.64821379 500.48400788 8.8828125 500.515625 C-5.15258449 500.5779615 -18.61446858 499.96781609 -32.390625 497.203125 C-33.52371094 496.97866699 -34.65679687 496.75420898 -35.82421875 496.52294922 C-38.65756522 495.91389055 -41.45978858 495.24016176 -44.265625 494.515625 C-45.75352539 494.13651978 -45.75352539 494.13651978 -47.27148438 493.74975586 C-57.90671486 490.94511003 -68.18005141 487.27276211 -78.390625 483.203125 C-79.13280273 482.90792969 -79.87498047 482.61273438 -80.63964844 482.30859375 C-94.52456933 476.70085253 -107.45892201 469.48221906 -119.7421875 460.9296875 C-122.37638823 459.13549871 -122.37638823 459.13549871 -125.34375 457.7578125 C-134.74389595 452.96132777 -142.81766779 445.12179915 -150.47265625 437.93359375 C-153.34346142 435.24725799 -156.26756178 432.63079933 -159.203125 430.015625 C-162.99841637 426.57376334 -166.4399314 423.03464058 -169.7265625 419.109375 C-171.45179322 417.13305436 -173.29246608 415.37460111 -175.203125 413.578125 C-213.14473011 375.78133518 -234.64476954 313.4374428 -234.94178772 260.86613464 C-234.93892525 258.49895363 -234.92901275 256.13177083 -234.91210938 253.76464844 C-234.89063261 250.20438595 -234.91207696 246.64614038 -234.9375 243.0859375 C-234.97772568 209.93883232 -227.44732124 179.52202525 -214.390625 149.203125 C-214.05836914 148.41212402 -213.72611328 147.62112305 -213.38378906 146.80615234 C-208.26518896 134.68671559 -201.35342238 123.84798445 -194.13549805 112.87817383 C-192.29956566 110.06352276 -190.50805504 107.22338731 -188.71875 104.37890625 C-183.03990335 95.44134217 -176.22604388 87.78200742 -168.63989258 80.43774414 C-166.20384907 78.07213255 -163.90134605 75.6734184 -161.75390625 73.046875 C-159.85690636 70.76420406 -158.0906464 68.90359029 -155.828125 67.015625 C-152.88845075 64.52102293 -150.05440939 61.94972676 -147.25732422 59.29614258 C-138.62767431 51.16506327 -129.23365276 43.98175627 -118.703125 38.46484375 C-115.8284826 36.89641555 -113.09425147 35.14318307 -110.328125 33.390625 C-77.6136771 13.18575741 -38.57088399 0.14733171 0 0 Z M-76.390625 52.203125 C-77.19999512 52.59628906 -78.00936523 52.98945312 -78.84326172 53.39453125 C-97.85422505 62.71300232 -114.64073002 74.42618118 -130.45703125 88.4921875 C-131.76371285 89.64840274 -133.08456846 90.78876514 -134.41796875 91.9140625 C-139.23261972 95.99866083 -143.34473729 100.36474382 -147.390625 105.203125 C-148.49857422 106.47929687 -148.49857422 106.47929687 -149.62890625 107.78125 C-161.36200759 121.47922478 -171.1302697 136.17810362 -179.390625 152.203125 C-179.78910645 152.96882813 -180.18758789 153.73453125 -180.59814453 154.5234375 C-190.36795203 173.49979116 -195.31521241 193.34128515 -199.390625 214.203125 C-199.6278125 215.39679688 -199.865 216.59046875 -200.109375 217.8203125 C-205.05764993 247.00058086 -201.89931025 276.59435638 -195.390625 305.203125 C-195.21241211 306.00669434 -195.03419922 306.81026367 -194.85058594 307.63818359 C-187.41938662 340.88952849 -168.27158853 373.1685914 -144.79296875 397.66015625 C-143.04287089 399.51269886 -141.41734483 401.35314919 -139.80859375 403.3203125 C-136.65895608 407.07545402 -133.14242703 410.06911542 -129.390625 413.203125 C-128.18599609 414.22212891 -128.18599609 414.22212891 -126.95703125 415.26171875 C-110.36127713 429.09562374 -92.87894845 440.28783717 -73.390625 449.640625 C-72.55515137 450.041604 -71.71967773 450.44258301 -70.85888672 450.85571289 C-60.83571435 455.55004733 -50.74494043 458.83754782 -39.953125 461.265625 C-38.82293945 461.52239014 -37.69275391 461.77915527 -36.52832031 462.04370117 C-0.30006958 470.08902991 34.48723061 469.44490849 70.609375 461.203125 C71.49705566 461.00315918 72.38473633 460.80319336 73.29931641 460.59716797 C84.68076091 457.98242339 95.14214232 454.37497744 105.609375 449.203125 C106.43228027 448.79787598 107.25518555 448.39262695 108.10302734 447.97509766 C128.55561483 437.79981258 146.6180955 425.48099816 163.609375 410.203125 C164.34671875 409.56890625 165.0840625 408.9346875 165.84375 408.28125 C175.40155721 400.00636993 182.96588038 390.21449943 190.609375 380.203125 C191.04185547 379.63819336 191.47433594 379.07326172 191.91992188 378.49121094 C201.40308705 365.99067502 208.72032958 352.39349037 215.484375 338.265625 C215.84152588 337.52159424 216.19867676 336.77756348 216.56665039 336.01098633 C221.14936562 326.22393255 224.30182549 316.29953104 226.671875 305.765625 C226.92864014 304.63543945 227.18540527 303.50525391 227.44995117 302.34082031 C238.7349548 251.52425906 234.56731535 196.53863003 209.609375 150.203125 C209.20976562 149.45901367 208.81015625 148.71490234 208.3984375 147.94824219 C199.45196561 131.4792322 188.87609592 116.22943498 175.93359375 102.64453125 C174.00180479 100.61534116 172.19648797 98.55536736 170.421875 96.390625 C167.18056996 92.56754725 163.46350721 89.39299026 159.609375 86.203125 C158.51689453 85.29626953 158.51689453 85.29626953 157.40234375 84.37109375 C154.83187905 82.27806196 152.22922674 80.23404549 149.609375 78.203125 C149.07989258 77.79046387 148.55041016 77.37780273 148.00488281 76.95263672 C85.79673081 28.80474193 -5.03346301 17.09935209 -76.390625 52.203125 Z " fill="#ffffff" transform="translate(234.390625,-0.203125)"/>
<path d="M0 0 C9.47515357 6.99432789 16.6427984 15.57794934 18.5 27.45703125 C19.36706439 41.11329546 17.39135514 50.87631863 8.5 61.45703125 C0.25567485 70.08059535 -9.22692358 74.43815936 -21.1875 74.83203125 C-33.6022465 74.60798593 -42.51050257 70.36834639 -51.24609375 61.73046875 C-59.28636959 52.94832208 -62.02100313 42.85982246 -61.80859375 31.08984375 C-60.81972333 19.448711 -55.54268345 10.90835217 -47.0625 3.14453125 C-33.68967534 -7.65544571 -14.71377676 -9.08115909 0 0 Z " fill="#ffffff" transform="translate(271.5,215.54296875)"/>
<path d="M0 0 C9.59003191 7.10847107 16.64826122 16.33604018 18.46484375 28.421875 C19.49148784 41.11186913 16.58290461 51.52681925 8.46484375 61.421875 C0.18437939 70.09746525 -9.32868926 74.43552501 -21.34765625 74.734375 C-33.25985728 74.50747593 -41.50539578 70.82095674 -50.3203125 62.796875 C-58.92383348 53.64325677 -61.09334522 42.17793718 -60.87890625 30.08984375 C-60.42477879 20.72535708 -55.96399232 12.15546403 -49.53515625 5.421875 C-35.76927524 -7.06053264 -16.32016471 -10.15923967 0 0 Z " fill="#ffffff" transform="translate(388.53515625,215.578125)"/>
<path d="M0 0 C8.84745577 6.64597617 13.25843772 14.27531316 16.75 24.75 C17.73690406 38.49616376 16.47293653 49.8413958 7.48046875 60.9375 C0.20625219 68.55654398 -7.79759533 73.18246356 -18.37890625 73.98828125 C-32.37436531 74.29079971 -41.85732715 70.70196172 -51.9609375 61.12890625 C-59.9328853 52.69159094 -62.59924662 42.17094915 -62.4609375 30.87109375 C-61.73523107 20.13332638 -56.70076962 10.66106137 -48.875 3.375 C-44.93138645 0.09306658 -41.01603994 -2.36344252 -36.25 -4.25 C-35.21875 -4.6625 -34.1875 -5.075 -33.125 -5.5 C-21.19708419 -7.80862887 -10.17456761 -6.7376229 0 0 Z " fill="#ffffff" transform="translate(155.25,216.25)"/>
<path d="M0 0 C0.5775 0.350625 1.155 0.70125 1.75 1.0625 C4.35801776 2.14917407 5.39417629 1.93065133 8 1 C3.73081101 5.83841419 -2.1980408 6.75983207 -8.41796875 7.29296875 C-15.79001702 7.46179428 -22.11523244 6.66507131 -29 4 C-27.625 2.5 -27.625 2.5 -26 1 C-25.34 1 -24.68 1 -24 1 C-24 1.99 -24 2.98 -24 4 C-21.4580411 4.05434116 -18.91726318 4.0938339 -16.375 4.125 C-15.30572266 4.15013672 -15.30572266 4.15013672 -14.21484375 4.17578125 C-9.7387836 4.21684602 -6.22050722 3.69086567 -2 2 C-2 2.66 -2 3.32 -2 4 C-1.34 4 -0.68 4 0 4 C-0.33 3.01 -0.66 2.02 -1 1 C-0.67 0.67 -0.34 0.34 0 0 Z " fill="#ffffff" transform="translate(262,283)"/>
<path d="M0 0 C0.81726563 0.10183594 1.63453125 0.20367187 2.4765625 0.30859375 C3.10304688 0.39238281 3.72953125 0.47617187 4.375 0.5625 C4.375 0.8925 4.375 1.2225 4.375 1.5625 C-8.30217737 4.0849638 -20.68557196 6.19174275 -33.625 6.5625 C-33.955 5.9025 -34.285 5.2425 -34.625 4.5625 C-33.36840576 4.38859741 -33.36840576 4.38859741 -32.08642578 4.21118164 C-28.9812081 3.77974569 -25.87645104 3.34516868 -22.77197266 2.90844727 C-21.42774815 2.72000913 -20.0833469 2.5328274 -18.73876953 2.34692383 C-16.80715771 2.07963437 -14.87622324 1.80746417 -12.9453125 1.53515625 C-11.78273926 1.37281494 -10.62016602 1.21047363 -9.42236328 1.04321289 C-1.91724908 -0.24650345 -1.91724908 -0.24650345 0 0 Z " fill="#7A7A7A" transform="translate(303.625,493.4375)"/>
<path d="M0 0 C0.33 0 0.66 0 1 0 C0.46233663 6.74461265 -0.9210579 12.65804789 -3.0625 19.0625 C-3.34416016 19.92810547 -3.62582031 20.79371094 -3.91601562 21.68554688 C-4.60298435 23.79302719 -5.29770066 25.8975895 -6 28 C-7.08403091 24.74790727 -6.91685169 23.51179693 -6.29296875 20.21875 C-6.0309668 18.83236328 -6.0309668 18.83236328 -5.76367188 17.41796875 C-5.57353516 16.45503906 -5.38339844 15.49210937 -5.1875 14.5 C-5.00896484 13.53707031 -4.83042969 12.57414062 -4.64648438 11.58203125 C-2.98602933 2.98602933 -2.98602933 2.98602933 0 0 Z " fill="#ffffff" transform="translate(494,303)"/>
<path d="M0 0 C2 2 2 2 2 6 C2.66 6 3.32 6 4 6 C4 6.99 4 7.98 4 9 C4.99 9.33 5.98 9.66 7 10 C7.144375 11.216875 7.28875 12.43375 7.4375 13.6875 C7.73451213 16.15532135 8.107842 18.45097563 8.6875 20.875 C8.8421875 21.926875 8.8421875 21.926875 9 23 C8.34 23.66 7.68 24.32 7 25 C6.01321102 22.14827038 5.03543182 19.29395658 4.0625 16.4375 C3.78470703 15.63763672 3.50691406 14.83777344 3.22070312 14.01367188 C1.6315549 9.32281264 0.52252019 4.92756382 0 0 Z " fill="#797879" transform="translate(7,312)"/>
<path d="M0 0 C0.33 0.66 0.66 1.32 1 2 C1.66 2 2.32 2 3 2 C3.95619733 5.99795892 4.1039592 9.70803922 4.0625 13.8125 C4.05347656 14.97394531 4.04445313 16.13539063 4.03515625 17.33203125 C4.02355469 18.21246094 4.01195312 19.09289062 4 20 C3.01 20.33 2.02 20.66 1 21 C0.67 14.07 0.34 7.14 0 0 Z " fill="#5E5E5E" transform="translate(403,237)"/>
<path d="M0 0 C0 0.33 0 0.66 0 1 C-9.37912587 1.79822348 -18.58786748 2.12873737 -28 2 C-28.33 1.34 -28.66 0.68 -29 0 C-19.15381347 -1.17316265 -9.83739221 -1.26934093 0 0 Z " fill="#737273" transform="translate(257,31)"/>
<path d="M0 0 C0.66 1.32 1.32 2.64 2 4 C-2.38748386 9.6249793 -6.91132843 13.30620592 -13 17 C-11.38071731 13.09521545 -8.80673954 10.43827444 -5.9375 7.375 C-2.58466353 3.95790247 -2.58466353 3.95790247 0 0 Z " fill="#525252" transform="translate(420,385)"/>
<path d="M0 0 C0.99 0.33 1.98 0.66 3 1 C-1.09872818 5.78184955 -6.01308509 8.95568759 -12 11 C-14.30859375 10.6328125 -14.30859375 10.6328125 -16 10 C-14.61381358 7.22762716 -13.13057338 7.15621118 -10.25 6.125 C-6.18326268 4.58764566 -3.37138055 2.75840227 0 0 Z " fill="#757373" transform="translate(157,278)"/>
<path d="M0 0 C0.66 0.33 1.32 0.66 2 1 C0.56314321 6.26847488 -2.90781296 9.5927713 -7 13 C-9.9375 14.4375 -9.9375 14.4375 -12 15 C-12 12 -12 12 -10.3203125 10.17578125 C-9.59585937 9.56089844 -8.87140625 8.94601562 -8.125 8.3125 C-7.40570313 7.68988281 -6.68640625 7.06726563 -5.9453125 6.42578125 C-4 5 -4 5 -2 5 C-1.34 3.35 -0.68 1.7 0 0 Z " fill="#696869" transform="translate(282,269)"/>
<path d="M0 0 C0.66 0.33 1.32 0.66 2 1 C1.67 2.98 1.34 4.96 1 7 C1.99 7.33 2.98 7.66 4 8 C-2.2054142 7.51679152 -7.99945246 6.66681876 -14 5 C-14 4.01 -14 3.02 -14 2 C-13.22914063 2.15597656 -12.45828125 2.31195313 -11.6640625 2.47265625 C-10.15972656 2.76462891 -10.15972656 2.76462891 -8.625 3.0625 C-7.62726563 3.25972656 -6.62953125 3.45695312 -5.6015625 3.66015625 C-3.02157461 4.24382952 -3.02157461 4.24382952 -1 3 C-0.67 2.01 -0.34 1.02 0 0 Z " fill="#ffffff" transform="translate(203,489)"/>
<path d="M0 0 C-0.639375 0.309375 -1.27875 0.61875 -1.9375 0.9375 C-3.93610821 1.8345163 -3.93610821 1.8345163 -5 3 C-7.69235776 3.23678716 -10.36498156 3.42198025 -13.0625 3.5625 C-14.20041992 3.62727539 -14.20041992 3.62727539 -15.36132812 3.69335938 C-17.24065438 3.79973633 -19.12030244 3.90039934 -21 4 C-21.33 3.34 -21.66 2.68 -22 2 C-19.64655194 1.66076424 -17.2924516 1.32849466 -14.9375 1 C-14.28072266 0.90460938 -13.62394531 0.80921875 -12.94726562 0.7109375 C-8.59861237 0.11112326 -4.38670929 -0.09127093 0 0 Z " fill="#5E5E5D" transform="translate(291,496)"/>
<path d="M0 0 C1.32 0.66 2.64 1.32 4 2 C0.83918877 4.59583531 -2.35773987 6.17645154 -6.125 7.75 C-7.17945313 8.19859375 -8.23390625 8.6471875 -9.3203125 9.109375 C-12 10 -12 10 -14 9 C-12.34387276 5.68774552 -9.35502069 5.23017425 -6 4 C-3.0625 3.8125 -3.0625 3.8125 -1 4 C-0.67 2.68 -0.34 1.36 0 0 Z " fill="#666566" transform="translate(356,473)"/>
<path d="M0 0 C3 3 3 3 3.3984375 6.28515625 C3.39070313 7.53167969 3.38296875 8.77820313 3.375 10.0625 C3.38273437 11.31160156 3.39046875 12.56070313 3.3984375 13.84765625 C3.26695312 14.88792969 3.13546875 15.92820313 3 17 C2.01 17.66 1.02 18.32 0 19 C0 12.73 0 6.46 0 0 Z " fill="#6F6D6E" transform="translate(287,240)"/>
<path d="M0 0 C-0.99 0.33 -1.98 0.66 -3 1 C-3 1.66 -3 2.32 -3 3 C-5.41474617 3.53160457 -7.83108107 4.05054766 -10.25 4.5625 C-10.93191406 4.71396484 -11.61382812 4.86542969 -12.31640625 5.02148438 C-15.92220803 5.77415174 -18.48600441 6.06166083 -22 5 C-19.27318889 4.15820605 -16.54398557 3.32636931 -13.8125 2.5 C-12.65911133 2.14228516 -12.65911133 2.14228516 -11.48242188 1.77734375 C-7.55643872 0.59786383 -4.14951179 -0.3326262 0 0 Z " fill="#ffffff" transform="translate(197,5)"/>
<path d="M0 0 C0 0.66 0 1.32 0 2 C-1.87387477 2.3396019 -3.74916697 2.67138691 -5.625 3 C-6.66914063 3.185625 -7.71328125 3.37125 -8.7890625 3.5625 C-11.90574865 3.98715797 -14.85930812 4.07545206 -18 4 C-17.01 3.67 -16.02 3.34 -15 3 C-15 2.34 -15 1.68 -15 1 C-9.94997778 -0.03590199 -5.12583611 -0.10251672 0 0 Z " fill="#626262" transform="translate(222,1)"/>
<path d="M0 0 C-1.423125 0.37125 -1.423125 0.37125 -2.875 0.75 C-6.51931151 2.20772461 -6.40005671 2.70011696 -8 6 C-11 7.8125 -11 7.8125 -14 9 C-14.66 8.67 -15.32 8.34 -16 8 C-14.61019248 6.86756424 -13.21285323 5.74436881 -11.8125 4.625 C-11.03519531 3.99851563 -10.25789063 3.37203125 -9.45703125 2.7265625 C-3.25842697 -1.62921348 -3.25842697 -1.62921348 0 0 Z " fill="#888888" transform="translate(355,213)"/>
<path d="M0 0 C0.33 0 0.66 0 1 0 C0.42085333 6.01326751 -0.22337945 12.00892722 -1 18 C-3.49310643 14.26034036 -3.0603261 12.70929359 -2.625 8.3125 C-2.51414063 7.13300781 -2.40328125 5.95351562 -2.2890625 4.73828125 C-2.19367187 3.83464844 -2.09828125 2.93101562 -2 2 C-1.34 2 -0.68 2 0 2 C0 1.34 0 0.68 0 0 Z " fill="#676567" transform="translate(4,205)"/>
<path d="M0 0 C3.83447364 1.50640036 5.46940469 3.83675586 8 7 C10.11660427 8.31165257 10.11660427 8.31165257 12 9 C12 9.99 12 10.98 12 12 C12.99 12.33 13.98 12.66 15 13 C14.34 13.66 13.68 14.32 13 15 C11.38957012 13.44395612 9.78690632 11.87987244 8.1875 10.3125 C7.29417969 9.44238281 6.40085937 8.57226562 5.48046875 7.67578125 C3.20985423 5.22637818 1.58588655 2.92414297 0 0 Z " fill="#7F7E7F" transform="translate(52,404)"/>
<path d="M0 0 C0.33 0 0.66 0 1 0 C0.85764543 1.72945653 0.71095618 3.45855654 0.5625 5.1875 C0.48128906 6.15042969 0.40007812 7.11335938 0.31640625 8.10546875 C0.02333849 10.78649602 -0.42703754 13.3662986 -1 16 C-3.25668692 12.61496962 -3.18818083 11.87444105 -2.75 8 C-2.66234375 7.13375 -2.5746875 6.2675 -2.484375 5.375 C-2 3 -2 3 0 0 Z " fill="#878586" transform="translate(497,287)"/>
<path d="M0 0 C2.45 9.1 2.45 9.1 1 12 C0.34 12 -0.32 12 -1 12 C-1 14.97 -1 17.94 -1 21 C-1.33 21 -1.66 21 -2 21 C-2.3690205 6.21867882 -2.3690205 6.21867882 0 0 Z " fill="#AAA6A7" transform="translate(212,236)"/>
<path d="M0 0 C5.65020618 0.60108576 10.66164461 2.07528683 16 4 C12.78764145 5.90335782 12.2605718 6.05840402 8.375 5.1875 C5 4 5 4 3 3 C3 2.34 3 1.68 3 1 C2.01 0.67 1.02 0.34 0 0 Z " fill="#757575" transform="translate(315,8)"/>
<path d="M0 0 C7.26 0.33 14.52 0.66 22 1 C22 1.33 22 1.66 22 2 C18.89738494 2.25494218 15.79325198 2.47447008 12.6875 2.6875 C11.36588867 2.79674805 11.36588867 2.79674805 10.01757812 2.90820312 C9.17001953 2.96298828 8.32246094 3.01777344 7.44921875 3.07421875 C6.66893311 3.13182373 5.88864746 3.18942871 5.0847168 3.2487793 C3 3 3 3 0 0 Z " fill="#A0A0A0" transform="translate(220,466)"/>
<path d="M0 0 C3.45201639 1.47721422 5.64961936 3.43794001 8.25 6.125 C8.95640625 6.84945312 9.6628125 7.57390625 10.390625 8.3203125 C11.18726563 9.15175781 11.18726563 9.15175781 12 10 C11.01 10.33 10.02 10.66 9 11 C8.79375 10.38125 8.5875 9.7625 8.375 9.125 C6.45224112 6.15346355 4.33405473 5.86975341 1 5 C0.67 3.35 0.34 1.7 0 0 Z " fill="#5C5C5C" transform="translate(409,57)"/>
<path d="M0 0 C0.33 0.66 0.66 1.32 1 2 C-0.109375 4.3125 -0.109375 4.3125 -1.75 7 C-2.28109375 7.886875 -2.8121875 8.77375 -3.359375 9.6875 C-5 12 -5 12 -8 14 C-7.42415568 11.61435923 -6.77772405 9.33317216 -6 7 C-5.01 7 -4.02 7 -3 7 C-2.814375 5.5459375 -2.814375 5.5459375 -2.625 4.0625 C-2.41875 3.051875 -2.2125 2.04125 -2 1 C-1.34 0.67 -0.68 0.34 0 0 Z " fill="#747373" transform="translate(403,264)"/>
<path d="M0 0 C0.66 0.33 1.32 0.66 2 1 C1.34 2.32 0.68 3.64 0 5 C-0.66 5 -1.32 5 -2 5 C-2.33 5.66 -2.66 6.32 -3 7 C-4.97888961 7.72693904 -6.97954558 8.39816251 -9 9 C-6 6 -3 3 0 0 Z M-6 9 C-5.67 9.66 -5.34 10.32 -5 11 C-5.66 10.67 -6.32 10.34 -7 10 C-6.67 9.67 -6.34 9.34 -6 9 Z " fill="#777777" transform="translate(95,52)"/>
<path d="M0 0 C1.35439668 2.70879335 1.06501451 5.00933268 1 8 C-1.33214148 9.20628008 -3.49642139 10.1654738 -6 11 C-4.54955729 6.89041233 -2.48889248 3.56741255 0 0 Z " fill="#606060" transform="translate(437,361)"/>
<path d="M0 0 C9.41002278 0.96355353 9.41002278 0.96355353 14 2 C12 4 12 4 9.6875 4.08203125 C8.800625 3.99308594 7.91375 3.90414063 7 3.8125 C5.6696875 3.69841797 5.6696875 3.69841797 4.3125 3.58203125 C2 3 2 3 0 0 Z " fill="#858585" transform="translate(294,3)"/>
<path d="M0 0 C1.32 0 2.64 0 4 0 C4.66 1.98 5.32 3.96 6 6 C6.66 6 7.32 6 8 6 C8 6.66 8 7.32 8 8 C8.66 8 9.32 8 10 8 C9.67 9.32 9.34 10.64 9 12 C7.68527053 10.37680325 6.37328338 8.751385 5.0625 7.125 C4.33160156 6.22007813 3.60070312 5.31515625 2.84765625 4.3828125 C1 2 1 2 0 0 Z " fill="#5D5D5D" transform="translate(411,103)"/>
<path d="M0 0 C0.33 0.66 0.66 1.32 1 2 C0.360625 2.928125 -0.27875 3.85625 -0.9375 4.8125 C-3.08622093 7.84219943 -3.08622093 7.84219943 -4 11 C-6.5625 12.1875 -6.5625 12.1875 -9 13 C-8.06398754 11.58235006 -7.1261208 10.16592432 -6.1875 8.75 C-5.66542969 7.96109375 -5.14335937 7.1721875 -4.60546875 6.359375 C-3.12865878 4.18907519 -1.59310127 2.08586232 0 0 Z " fill="#808080" transform="translate(430,372)"/>
<path d="M0 0 C4.24223102 -0.3636198 6.58168085 0.4606772 10 3 C10 3.66 10 4.32 10 5 C10.66 5.33 11.32 5.66 12 6 C7.01208429 5.52496041 3.9767259 4.0298864 0 1 C0 0.67 0 0.34 0 0 Z " fill="#848283" transform="translate(110,282)"/>
<path d="M0 0 C0.33 0.66 0.66 1.32 1 2 C-4.12583611 2.10251672 -8.94997778 2.03590199 -14 1 C-14 0.67 -14 0.34 -14 0 C-8.97278473 -1.13112344 -5.01462597 -0.93493027 0 0 Z " fill="#888888" transform="translate(221,497)"/>
<path d="M0 0 C3.99500618 1.3697164 6.80009492 3.25722422 10 6 C9.01 6.33 8.02 6.66 7 7 C6.67 6.34 6.34 5.68 6 5 C4.35 5.33 2.7 5.66 1 6 C0.67 4.02 0.34 2.04 0 0 Z " fill="#636363" transform="translate(131,433)"/>
<path d="M0 0 C0.33 0.99 0.66 1.98 1 3 C-0.21484375 5.26171875 -0.21484375 5.26171875 -1.9375 7.6875 C-2.50339844 8.49574219 -3.06929688 9.30398438 -3.65234375 10.13671875 C-4.09707031 10.75160156 -4.54179687 11.36648438 -5 12 C-5.33 11.34 -5.66 10.68 -6 10 C-5.0390625 7.87109375 -5.0390625 7.87109375 -3.625 5.4375 C-3.16351563 4.63183594 -2.70203125 3.82617188 -2.2265625 2.99609375 C-1 1 -1 1 0 0 Z " fill="#6F6F6F" transform="translate(455,390)"/>
<path d="M0 0 C0.66 0 1.32 0 2 0 C2.8125 1.625 2.8125 1.625 3 4 C0.6875 7.25 0.6875 7.25 -2 10 C-2.66 10 -3.32 10 -4 10 C-2.80000272 6.91429271 -1.47968053 3.95936106 0 1 C0 0.67 0 0.34 0 0 Z " fill="#646464" transform="translate(74,115)"/>
<path d="M0 0 C0.33 0.66 0.66 1.32 1 2 C3.32156597 2.40729228 5.6568787 2.74438677 8 3 C8.33 3.99 8.66 4.98 9 6 C7.51793505 5.745504 6.03931385 5.47088238 4.5625 5.1875 C3.73878906 5.03667969 2.91507813 4.88585937 2.06640625 4.73046875 C1.38449219 4.48941406 0.70257813 4.24835938 0 4 C-0.33 3.01 -0.66 2.02 -1 1 C-0.67 0.67 -0.34 0.34 0 0 Z " fill="#575757" transform="translate(166,483)"/>
<path d="M0 0 C0.33 0 0.66 0 1 0 C2.83292414 6.40766041 3.04559253 11.41276707 2 18 C1.67 18 1.34 18 1 18 C0.10395632 11.95170514 -0.11269443 6.1105424 0 0 Z " fill="#ACACAC" transform="translate(0,268)"/>
<path d="M0 0 C1.08667969 0.02707031 2.17335937 0.05414063 3.29296875 0.08203125 C4.54013672 0.13423828 4.54013672 0.13423828 5.8125 0.1875 C5.8125 0.5175 5.8125 0.8475 5.8125 1.1875 C4.25133181 1.52701619 2.68848662 1.85882544 1.125 2.1875 C-0.18017578 2.4659375 -0.18017578 2.4659375 -1.51171875 2.75 C-4.12462964 3.17722047 -6.54563038 3.26366201 -9.1875 3.1875 C-6.54246503 -0.34849411 -4.24021315 -0.13678107 0 0 Z " fill="#989898" transform="translate(208.1875,34.8125)"/>
<path d="M0 0 C6.11485027 -0.09706112 11.93303301 0.22959149 18 1 C18 1.33 18 1.66 18 2 C11.40609458 2.99989549 6.38232875 3.00925164 0 1 C0 0.67 0 0.34 0 0 Z " fill="#A6A6A6" transform="translate(269,0)"/>
<path d="M0 0 C1.32 0.33 2.64 0.66 4 1 C1.69 3.31 -0.62 5.62 -3 8 C-3.66 7.34 -4.32 6.68 -5 6 C-3.35 4.02 -1.7 2.04 0 0 Z " fill="#4C4C4C" transform="translate(427,423)"/>
<path d="M0 0 C0.66 0 1.32 0 2 0 C1.01 4.62 0.02 9.24 -1 14 C-3 10 -3 10 -2.5390625 7.421875 C-2.23742187 6.54015625 -1.93578125 5.6584375 -1.625 4.75 C-1.32851563 3.85796875 -1.03203125 2.9659375 -0.7265625 2.046875 C-0.48679687 1.37140625 -0.24703125 0.6959375 0 0 Z " fill="#4A4A4A" transform="translate(487,323)"/>
<path d="M0 0 C0.99 0.33 1.98 0.66 3 1 C-0.19990508 3.74277578 -3.00499382 5.6302836 -7 7 C-6.67 5.68 -6.34 4.36 -6 3 C-5.01 3.33 -4.02 3.66 -3 4 C-2.67 3.01 -2.34 2.02 -2 1 C-1.34 0.67 -0.68 0.34 0 0 Z " fill="#5F5E5F" transform="translate(145,56)"/>
<path d="M0 0 C0.33 0 0.66 0 1 0 C1.8320582 5.72040011 2.12036664 11.22240116 2 17 C1.67 17 1.34 17 1 17 C-0.88341198 10.90660831 -1.0748291 6.27467799 0 0 Z " fill="#B3B2B2" transform="translate(498,214)"/>
<path d="M0 0 C0 0.66 0 1.32 0 2 C-7.625 3.25 -7.625 3.25 -11 1 C-7.26562152 0.12132271 -3.83225427 -0.08912219 0 0 Z " fill="#777777" transform="translate(298,463)"/>
<path d="M0 0 C3.21029714 1.10699901 4.00968977 2.01603825 5.8125 5 C6.204375 5.99 6.59625 6.98 7 8 C6.67 8.66 6.34 9.32 6 10 C4.99723227 8.52270825 3.99785546 7.04311423 3 5.5625 C2.443125 4.73878906 1.88625 3.91507812 1.3125 3.06640625 C0 1 0 1 0 0 Z " fill="#868686" transform="translate(44,392)"/>
<path d="M0 0 C3.37503669 1.1858237 5.64722731 2.27573689 8 5 C6.35 5.33 4.7 5.66 3 6 C2.01 4.02 1.02 2.04 0 0 Z " fill="#4C4C4C" transform="translate(30,370)"/>
<path d="M0 0 C2.79872437 2.52788007 4.45773019 4.20411134 5 8 C4.01 8 3.02 8 2 8 C0.23537317 4.91190305 0 3.76687864 0 0 Z " fill="#7F7D7F" transform="translate(282,227)"/>
<path d="M0 0 C1.32 0.99 2.64 1.98 4 3 C3.34 5.97 2.68 8.94 2 12 C1.67 12 1.34 12 1 12 C0.67 8.04 0.34 4.08 0 0 Z " fill="#969596" transform="translate(464,208)"/>
<path d="M0 0 C3.96 1.98 3.96 1.98 8 4 C7.67 4.66 7.34 5.32 7 6 C4.0625 5.25 4.0625 5.25 1 4 C0.67 2.68 0.34 1.36 0 0 Z " fill="#454545" transform="translate(128,466)"/>
<path d="M0 0 C0.33 0.66 0.66 1.32 1 2 C0.00390625 4.3828125 0.00390625 4.3828125 -1.4375 7.125 C-1.91058594 8.03507812 -2.38367188 8.94515625 -2.87109375 9.8828125 C-3.24363281 10.58148438 -3.61617188 11.28015625 -4 12 C-5.27514492 8.17456525 -4.52740413 6.66576992 -3 3 C-1.375 1.125 -1.375 1.125 0 0 Z " fill="#838383" transform="translate(475,358)"/>
<path d="M0 0 C2.3125 0.1875 2.3125 0.1875 5 1 C6.8125 3.5625 6.8125 3.5625 8 6 C4.08597051 4.73058503 2.20927127 3.48832306 0 0 Z " fill="#7F7F7F" transform="translate(339,278)"/>
<path d="M0 0 C2.3125 0.1875 2.3125 0.1875 5 1 C6.8125 3.5625 6.8125 3.5625 8 6 C4.08597051 4.73058503 2.20927127 3.48832306 0 0 Z " fill="#777676" transform="translate(222,278)"/>
<path d="M0 0 C3.68754757 0.49831724 5.60490662 1.10067643 8 4 C7.67 4.66 7.34 5.32 7 6 C5.83054208 5.19152271 4.66449539 4.37810888 3.5 3.5625 C2.8503125 3.11003906 2.200625 2.65757813 1.53125 2.19140625 C1.0259375 1.79824219 0.520625 1.40507813 0 1 C0 0.67 0 0.34 0 0 Z " fill="#6D6D6D" transform="translate(385,79)"/>
<path d="M0 0 C-3.53411321 2.12046792 -6.94393835 2.53199289 -11 3 C-11 2.34 -11 1.68 -11 1 C-6.87831311 -0.62950412 -4.29299643 -1.26264601 0 0 Z " fill="#828182" transform="translate(199,38)"/>
<path d="M0 0 C2.3125 0.1875 2.3125 0.1875 5 1 C6.8125 3.5625 6.8125 3.5625 8 6 C4.08597051 4.73058503 2.20927127 3.48832306 0 0 Z " fill="#878787" transform="translate(97,448)"/>
<path d="M0 0 C2.97 0.33 5.94 0.66 9 1 C9 1.33 9 1.66 9 2 C4.545 2.495 4.545 2.495 0 3 C0 2.01 0 1.02 0 0 Z " fill="#838383" transform="translate(299,493)"/>
<path d="M0 0 C0.66 0.33 1.32 0.66 2 1 C1.625 2.9375 1.625 2.9375 1 5 C0.01 5.495 0.01 5.495 -1 6 C-1.33 6.99 -1.66 7.98 -2 9 C-2.66 8.67 -3.32 8.34 -4 8 C-2.87548273 5.0280615 -1.77706209 2.66559313 0 0 Z " fill="#2D2C2D" transform="translate(399,266)"/>
<path d="M0 0 C1.32 0.99 2.64 1.98 4 3 C3.67 4.32 3.34 5.64 3 7 C1.68 5.68 0.36 4.36 -1 3 C-0.67 2.01 -0.34 1.02 0 0 Z " fill="#2C2B2C" transform="translate(278,224)"/>
<path d="M0 0 C0.66 0.33 1.32 0.66 2 1 C0.68 3.31 -0.64 5.62 -2 8 C-2.66 8 -3.32 8 -4 8 C-3.49396008 5.83125748 -3.00016187 4.00032373 -2 2 C-1.34 2 -0.68 2 0 2 C0 1.34 0 0.68 0 0 Z " fill="#4F4F4F" transform="translate(49,162)"/>
<path d="M0 0 C-0.33 0.99 -0.66 1.98 -1 3 C-2.875 3.875 -2.875 3.875 -5 4 C-6.75 2.5625 -6.75 2.5625 -8 1 C-2.25 -1.125 -2.25 -1.125 0 0 Z " fill="#6A6A6A" transform="translate(166,15)"/>
<path d="M0 0 C2.475 0.99 2.475 0.99 5 2 C2.08235 3.9451 0.37462715 4.45276317 -3 5 C-2.67 4.01 -2.34 3.02 -2 2 C-1.34 2 -0.68 2 0 2 C0 1.34 0 0.68 0 0 Z " fill="#6D6C6D" transform="translate(337,481)"/>
<path d="M0 0 C4.875 4.625 4.875 4.625 6 8 C3.53199953 6.84826645 1.95216435 5.95216435 0 4 C0 2.68 0 1.36 0 0 Z " fill="#5E5E5E" transform="translate(79,385)"/>
<path d="M0 0 C3 1 3 1 4.25 2.875 C5 5 5 5 4 8 C3.34 7.67 2.68 7.34 2 7 C1.26924352 4.6859378 0.59861742 2.35171131 0 0 Z " fill="#686868" transform="translate(400,231)"/>
<path d="M0 0 C1.65 1.65 3.3 3.3 5 5 C4.67 5.66 4.34 6.32 4 7 C2.35 5.68 0.7 4.36 -1 3 C-0.67 2.01 -0.34 1.02 0 0 Z " fill="#757575" transform="translate(396,223)"/>
<path d="M0 0 C0.33 0.99 0.66 1.98 1 3 C1.66 3.33 2.32 3.66 3 4 C1.35 5.65 -0.3 7.3 -2 9 C-1.51421457 5.87709365 -1.0013988 3.00419641 0 0 Z " fill="#828081" transform="translate(12,169)"/>
<path d="M0 0 C1.9451 2.91765 2.45276317 4.62537285 3 8 C1.68 7.67 0.36 7.34 -1 7 C-0.67 4.69 -0.34 2.38 0 0 Z " fill="#656565" transform="translate(484,161)"/>
<path d="M0 0 C0.66 0 1.32 0 2 0 C1.46930939 3.82097239 0.50298434 6.06171403 -2 9 C-2.25 3.375 -2.25 3.375 0 0 Z " fill="#656565" transform="translate(56,145)"/>
<path d="M0 0 C0.99 0.33 1.98 0.66 3 1 C1.25 5.875 1.25 5.875 -1 7 C-0.67 4.69 -0.34 2.38 0 0 Z " fill="#5E5E5E" transform="translate(66,127)"/>
<path d="M0 0 C1.32 0.99 2.64 1.98 4 3 C3.67 3.99 3.34 4.98 3 6 C1.35 4.35 -0.3 2.7 -2 1 C-1.34 0.67 -0.68 0.34 0 0 Z " fill="#4E4E4E" transform="translate(397,86)"/>
</svg>
