<?xml version="1.0" standalone="no"?>
<!DOCTYPE svg PUBLIC "-//W3C//DTD SVG 20010904//EN"
 "http://www.w3.org/TR/2001/REC-SVG-20010904/DTD/svg10.dtd">
<svg version="1.0" xmlns="http://www.w3.org/2000/svg"
 width="500.000000pt" height="500.000000pt" viewBox="0 0 500.000000 500.000000"
 preserveAspectRatio="xMidYMid meet">

<g transform="translate(0.000000,500.000000) scale(0.100000,-0.100000)"
fill="#ffffff" stroke="none">
<path d="M2310 4994 c-14 -2 -59 -9 -100 -15 -183 -27 -373 -94 -609 -215 -91
-46 -168 -84 -173 -84 -4 0 -38 19 -75 41 -38 23 -70 42 -73 42 -3 -1 -16 4
-30 9 -81 31 -217 36 -320 12 -75 -17 -94 -22 -97 -24 -2 -2 -6 -3 -10 -4 -27
-6 -147 -76 -193 -111 -115 -90 -266 -277 -326 -405 -20 -41 -42 -88 -50 -105
-21 -42 -44 -161 -44 -224 0 -166 43 -265 175 -398 l90 -91 -28 -34 c-107
-124 -207 -290 -207 -341 0 -41 28 -77 60 -77 28 0 25 -14 -20 -95 -119 -213
-221 -434 -259 -562 -28 -93 -28 -152 1 -182 19 -21 28 -23 79 -18 l57 5 -35
-97 c-82 -221 -123 -391 -123 -503 0 -108 48 -132 173 -89 32 11 58 17 58 13
5 -23 6 -65 8 -334 1 -255 3 -299 17 -312 13 -13 44 -16 180 -16 l164 0 -6
-27 c-3 -16 -14 -61 -25 -101 -25 -96 -25 -136 3 -162 20 -18 35 -20 175 -20
84 0 153 -2 153 -3 0 -2 -9 -30 -20 -62 -29 -83 -26 -120 9 -156 16 -16 38
-29 49 -29 11 0 36 -7 55 -15 101 -42 450 -120 687 -154 287 -40 384 -46 815
-46 441 0 550 6 856 50 306 44 698 145 763 196 33 26 34 71 6 154 -11 32 -20
60 -20 62 0 1 69 3 153 3 140 0 155 2 175 20 14 13 22 33 22 54 0 28 -26 149
-46 219 -5 16 7 17 154 17 142 0 162 2 183 19 l24 19 1 294 c1 161 2 303 3
315 l1 22 57 -20 c76 -26 127 -25 153 3 45 49 16 243 -79 517 l-58 169 57 -5
c50 -5 59 -3 78 18 59 62 -13 287 -214 665 -44 82 -80 155 -82 162 -2 6 5 12
15 12 31 0 53 23 62 62 7 31 4 45 -26 100 -39 69 -124 192 -175 251 l-33 39
91 91 c71 72 99 109 130 171 l39 80 0 135 c-1 80 -6 155 -14 181 -15 55 -80
185 -123 248 -153 227 -294 355 -463 423 -144 58 -315 63 -453 14 -7 -2 -13
-4 -15 -3 -1 0 -32 -18 -70 -41 -37 -22 -72 -41 -77 -41 -6 0 -68 31 -138 68
-232 123 -399 185 -612 227 -81 17 -447 30 -510 19z m404 -174 c33 -5 85 -12
114 -15 81 -9 296 -82 416 -141 104 -52 196 -107 196 -117 0 -5 -14 -28 -31
-53 -47 -68 -86 -160 -113 -262 -18 -70 -31 -102 -54 -125 -58 -61 -112 -157
-112 -199 0 -49 28 -78 74 -78 41 0 50 8 110 98 25 38 67 89 93 113 55 51 176
139 191 139 9 0 -20 -77 -74 -196 -26 -58 -84 -275 -84 -314 0 -75 53 -88 175
-46 38 14 71 23 73 22 1 -2 -9 -38 -23 -80 -43 -128 -38 -263 12 -361 59 -113
211 -188 281 -139 19 13 23 23 20 62 -3 46 -4 47 -62 78 -50 26 -106 81 -106
104 0 4 33 -2 73 -12 131 -34 337 -22 453 27 29 12 40 12 51 3 17 -14 153
-194 153 -202 0 -3 -11 -6 -24 -6 -42 0 -59 -27 -54 -84 4 -40 18 -75 66 -156
120 -205 283 -542 269 -556 -3 -4 -20 -1 -38 5 -51 18 -106 14 -129 -9 -29
-29 -25 -67 16 -162 96 -223 197 -528 180 -546 -4 -3 -30 2 -60 11 -72 23
-111 22 -136 -5 -19 -21 -20 -34 -20 -350 l0 -328 -173 0 c-161 0 -175 -1
-195 -20 -29 -27 -28 -71 3 -188 14 -52 23 -98 19 -103 -3 -5 -75 -9 -161 -9
-132 0 -159 -3 -175 -17 -25 -22 -23 -75 6 -161 18 -53 22 -73 13 -81 -39 -31
-410 -118 -647 -150 -291 -40 -398 -46 -800 -46 -414 0 -522 7 -832 51 -236
33 -524 101 -599 140 l-28 14 25 72 c28 84 31 134 7 160 -14 16 -34 18 -174
18 -87 0 -160 4 -163 8 -3 5 6 51 19 103 31 120 32 162 3 189 -20 19 -34 20
-195 20 l-173 0 0 328 c0 316 -1 329 -20 350 -25 27 -68 28 -134 6 -26 -9 -50
-14 -53 -11 -10 10 35 190 76 304 22 62 61 160 86 219 25 58 45 119 45 135 0
60 -67 86 -149 58 -18 -6 -35 -9 -38 -5 -14 14 100 253 244 510 104 185 119
230 84 265 -11 11 -32 21 -46 21 -14 0 -25 2 -25 6 0 6 98 137 136 182 l29 33
38 -16 c117 -49 322 -61 455 -27 39 10 72 16 72 13 0 -4 -11 -23 -25 -43 -15
-23 -45 -46 -79 -62 -56 -27 -66 -39 -66 -87 0 -93 132 -90 238 6 111 100 138
256 76 444 -14 40 -23 75 -22 76 2 2 35 -8 73 -21 123 -42 175 -28 175 46 0
56 -63 266 -119 396 -27 63 -45 114 -39 114 19 0 164 -110 209 -158 24 -26 63
-76 88 -112 51 -76 56 -80 97 -80 44 0 74 32 74 79 0 41 -55 137 -112 198 -23
23 -36 55 -54 125 -27 102 -66 194 -113 262 -17 25 -31 49 -31 54 0 17 246
146 360 187 136 50 258 78 395 91 33 3 62 8 64 10 8 7 269 -5 335 -16z m-1483
-222 c86 -42 172 -115 223 -192 59 -90 58 -92 -33 -46 -165 82 -271 108 -305
74 -9 -9 -16 -32 -16 -57 0 -33 10 -55 51 -114 86 -124 228 -443 198 -443 -6
0 -56 18 -111 40 -154 61 -218 53 -218 -28 0 -27 11 -54 41 -97 45 -66 119
-211 119 -232 0 -22 -60 -41 -165 -52 -54 -6 -101 -8 -104 -6 -4 2 -29 4 -56
6 -96 6 -249 78 -338 160 -50 45 -76 79 -104 137 -35 71 -38 82 -37 162 1 109
38 208 130 346 108 162 199 252 318 315 100 54 161 69 252 66 68 -3 92 -9 155
-39z m2867 10 c34 -14 88 -41 119 -59 126 -76 291 -281 370 -460 34 -76 37
-93 38 -174 0 -81 -3 -97 -32 -157 -76 -161 -265 -290 -448 -307 -73 -7 -257
6 -272 19 -2 2 -6 3 -10 5 -26 7 -43 19 -43 29 0 20 76 167 119 231 30 43 41
70 41 97 0 78 -57 87 -201 32 -97 -37 -139 -50 -139 -42 0 46 141 341 214 448
31 46 56 91 56 102 0 22 -18 60 -34 70 -35 24 -148 -7 -297 -82 -91 -46 -92
-44 -33 46 65 98 177 183 289 221 63 20 188 11 263 -19z"/>
<path d="M1653 3105 c-60 -42 -93 -146 -93 -295 0 -114 16 -189 50 -245 32
-52 60 -67 116 -63 43 3 51 7 80 45 47 62 64 131 64 265 0 156 -34 268 -90
298 -28 15 -103 12 -127 -5z"/>
<path d="M3218 3110 c-25 -15 -58 -74 -74 -133 -19 -72 -18 -264 2 -333 8 -30
30 -74 48 -97 29 -38 37 -42 80 -45 58 -4 86 12 120 70 32 58 46 130 46 246 0
141 -34 246 -93 287 -24 17 -103 20 -129 5z"/>
<path d="M2130 1540 c-13 -13 -20 -33 -20 -57 0 -33 9 -46 98 -135 89 -89 102
-98 135 -98 49 0 77 28 77 78 0 45 0 45 -112 150 -75 71 -91 82 -122 82 -23 0
-43 -7 -56 -20z"/>
<path d="M2678 1465 c-92 -88 -98 -96 -98 -134 0 -53 27 -81 77 -81 33 0 46 9
135 98 89 89 98 102 98 135 0 49 -28 77 -77 77 -34 -1 -48 -10 -135 -95z"/>
<path d="M2440 1150 c-18 -18 -20 -33 -20 -135 l0 -115 -46 -30 c-82 -52 -191
-61 -279 -24 -78 32 -135 6 -135 -63 0 -21 4 -43 8 -49 6 -10 67 -46 82 -49 3
-1 32 -7 64 -14 112 -25 265 2 362 64 18 11 30 9 95 -22 41 -20 85 -38 99 -41
39 -7 224 -10 235 -3 6 3 12 6 15 6 17 2 106 48 112 58 4 7 8 29 8 50 0 69
-57 95 -135 63 -88 -37 -197 -28 -279 24 l-46 30 0 115 c0 135 -10 155 -80
155 -27 0 -47 -7 -60 -20z"/>
<path d="M2366 604 c-10 -9 -16 -33 -16 -59 0 -69 12 -75 150 -75 138 0 150 6
150 75 0 69 -12 75 -150 75 -94 0 -122 -3 -134 -16z"/>
</g>
</svg>
