<?xml version="1.0" encoding="UTF-8"?>
<svg version="1.1" xmlns="http://www.w3.org/2000/svg" height="912px" viewBox="130 90 200 200" width="912px">
<path d="M0 0 C0.68128967 -0.00175232 1.36257935 -0.00350464 2.06451416 -0.00531006 C4.32688917 -0.00972789 6.58918663 -0.00679084 8.8515625 -0.00341797 C10.4171551 -0.00409103 11.9827476 -0.00506107 13.54833984 -0.00631714 C16.83366895 -0.00779402 20.11897092 -0.00563988 23.40429688 -0.00097656 C27.62476766 0.00472073 31.84517486 0.00144167 36.06564331 -0.00454903 C39.29972822 -0.00815491 42.53379795 -0.00701593 45.7678833 -0.00442123 C47.32448331 -0.00375204 48.88108468 -0.00458012 50.43768311 -0.00690079 C52.60953446 -0.00942777 54.78128146 -0.00558612 56.953125 0 C58.19143066 0.00079559 59.42973633 0.00159119 60.70556641 0.00241089 C63.4765625 0.12939453 63.4765625 0.12939453 64.4765625 1.12939453 C64.57185862 4.14289691 64.60208154 7.13343559 64.59008789 10.1472168 C64.59023392 11.09345917 64.59037994 12.03970154 64.5905304 13.01461792 C64.58983086 16.15836845 64.58203659 19.30206054 64.57421875 22.44580078 C64.57235471 24.61913521 64.57093074 26.79247006 64.56993103 28.96580505 C64.56610471 34.69840648 64.55627347 40.43098276 64.54522705 46.16357422 C64.53501537 52.00829732 64.53043393 57.85302447 64.52539062 63.69775391 C64.5146513 75.17497853 64.49757352 86.65218444 64.4765625 98.12939453 C55.67961758 98.22208245 46.88284079 98.29315299 38.08551407 98.33664322 C34.0005188 98.35751665 29.91585765 98.38582916 25.83105469 98.43115234 C21.88881905 98.47461983 17.94690473 98.49853348 14.00444794 98.5089035 C12.50051566 98.51629335 10.99660093 98.5307242 9.49280548 98.55231476 C7.38576791 98.58136265 5.28005721 98.58535024 3.17285156 98.58349609 C1.97372131 98.59237854 0.77459106 98.60126099 -0.46087646 98.6104126 C-3.5234375 98.12939453 -3.5234375 98.12939453 -5.9125824 96.66197205 C-8.31475866 92.88528376 -8.05929276 89.54462129 -7.9934082 85.15405273 C-7.9955986 84.24799286 -7.997789 83.34193298 -8.00004578 82.40841675 C-8.00235634 79.41529781 -7.97610852 76.42316345 -7.94921875 73.43017578 C-7.94429613 71.35320854 -7.94099641 69.27623687 -7.93925476 67.19926453 C-7.93161449 62.84892591 -7.91104912 58.49891627 -7.88012695 54.14868164 C-7.84047829 48.55954471 -7.82250682 42.9706216 -7.81281757 37.38136005 C-7.80286742 32.0642694 -7.78296119 26.74723153 -7.76171875 21.43017578 C-7.758323 20.40912561 -7.75492725 19.38807545 -7.7514286 18.33608437 C-7.73990915 15.46284239 -7.72139884 12.58973943 -7.70043945 9.71655273 C-7.69775055 8.85681351 -7.69506165 7.99707428 -7.69229126 7.11128235 C-7.62537794 -0.16527061 -7.14210736 0.0045887 0 0 Z " fill="#ffffff" transform="translate(159.5234375,169.87060546875)"/>
<path d="M0 0 C10.04638387 5.93970415 15.92728381 15.51412289 21.28125 25.6015625 C22.10958155 27.29205424 22.10958155 27.29205424 23.2265625 28.31640625 C23.62746094 27.50558594 24.02835937 26.69476563 24.44140625 25.859375 C30.28896466 14.46923288 37.05308637 3.41519346 49.1640625 -1.99609375 C56.52076976 -3.64759946 61.25277925 -2.88520279 67.82421875 0.69921875 C72.8834565 4.10494953 76.25661869 8.13403269 78.7265625 13.69140625 C79.68663882 20.65195954 79.53310816 26.1023378 75.2265625 31.87890625 C73.93806657 33.4182872 72.6451938 34.89777495 71.2265625 36.31640625 C72.14469727 36.32575195 73.06283203 36.33509766 74.00878906 36.34472656 C77.42361528 36.38880556 80.83719358 36.45044357 84.25146484 36.52392578 C85.72758446 36.55210713 87.20385419 36.57333591 88.68017578 36.58740234 C90.80579307 36.60887323 92.92961129 36.65553668 95.0546875 36.70703125 C96.3324707 36.72797852 97.61025391 36.74892578 98.92675781 36.77050781 C102.2265625 37.31640625 102.2265625 37.31640625 106.2265625 41.31640625 C106.2265625 49.23640625 106.2265625 57.15640625 106.2265625 65.31640625 C80.4865625 65.31640625 54.7465625 65.31640625 28.2265625 65.31640625 C28.2265625 56.40640625 28.2265625 47.49640625 28.2265625 38.31640625 C24.5965625 38.31640625 20.9665625 38.31640625 17.2265625 38.31640625 C17.2265625 47.22640625 17.2265625 56.13640625 17.2265625 65.31640625 C7.20428085 65.33895786 -2.81798407 65.35732168 -12.8402853 65.36821842 C-17.49354936 65.3734471 -22.14679524 65.38054448 -26.80004883 65.3918457 C-31.28688296 65.40267511 -35.77369954 65.4086832 -40.26054573 65.41128349 C-41.97624043 65.41313765 -43.69193412 65.41675807 -45.40762138 65.42213631 C-47.80228663 65.42934746 -50.19687846 65.43039716 -52.59155273 65.42993164 C-53.66617012 65.43532455 -53.66617012 65.43532455 -54.76249695 65.44082642 C-59.65938534 65.43045841 -59.65938534 65.43045841 -60.7734375 64.31640625 C-61.08160042 60.36597013 -61.05183033 56.4023855 -61.0859375 52.44140625 C-61.11494141 51.32636719 -61.14394531 50.21132812 -61.17382812 49.0625 C-61.18220703 47.99386719 -61.19058594 46.92523438 -61.19921875 45.82421875 C-61.21380127 44.8408252 -61.22838379 43.85743164 -61.2434082 42.84423828 C-60.7734375 40.31640625 -60.7734375 40.31640625 -59.19506836 38.50415039 C-55.91275385 36.8942643 -53.25212271 36.87949406 -49.6015625 36.8046875 C-48.5779361 36.7777607 -48.5779361 36.7777607 -47.53363037 36.75028992 C-45.3636281 36.69630242 -43.19384425 36.66233042 -41.0234375 36.62890625 C-39.54814676 36.59572273 -38.07288481 36.5612321 -36.59765625 36.52539062 C-32.98979323 36.44058467 -29.38185388 36.37371788 -25.7734375 36.31640625 C-26.18335938 35.8575 -26.59328125 35.39859375 -27.015625 34.92578125 C-27.55445313 34.3121875 -28.09328125 33.69859375 -28.6484375 33.06640625 C-29.18210938 32.463125 -29.71578125 31.85984375 -30.265625 31.23828125 C-33.75041262 26.79653123 -34.40529319 22.90119523 -33.7734375 17.31640625 C-32.37173254 10.74113573 -28.79667061 5.70809168 -23.7734375 1.31640625 C-15.7658314 -3.80156103 -8.45859345 -4.17116206 0 0 Z M-19.7734375 15.31640625 C-21.09892582 18.75977399 -21.09892582 18.75977399 -20.7734375 22.31640625 C-15.49287318 30.44226288 -5.14103742 32.40760446 3.75390625 34.8359375 C6.30582934 35.33180881 8.63359108 35.40453945 11.2265625 35.31640625 C6.32185647 24.6186752 6.32185647 24.6186752 -0.7734375 15.31640625 C-1.4334375 15.31640625 -2.0934375 15.31640625 -2.7734375 15.31640625 C-2.7734375 14.65640625 -2.7734375 13.99640625 -2.7734375 13.31640625 C-5.41630329 11.29539124 -7.42326347 10.37601034 -10.7109375 9.81640625 C-15.01655244 10.51936379 -16.8495752 12.12055676 -19.7734375 15.31640625 Z M50.2265625 12.31640625 C50.2265625 12.97640625 50.2265625 13.63640625 50.2265625 14.31640625 C49.66066406 14.35507813 49.09476563 14.39375 48.51171875 14.43359375 C45.07913528 15.75968583 43.61601727 18.47891166 41.6640625 21.44140625 C41.08495117 22.27671875 41.08495117 22.27671875 40.49414062 23.12890625 C37.85799562 27.02698779 35.96691876 30.94605475 34.2265625 35.31640625 C44.68234677 34.60753952 55.99433422 32.20900683 64.2265625 25.31640625 C66.53858136 22.44930317 66.53858136 22.44930317 66.2265625 18.94140625 C64.94013154 14.278094 63.29715015 12.85092309 59.2265625 10.31640625 C55.05406468 9.74371047 53.76785434 9.95554503 50.2265625 12.31640625 Z " fill="#ffffff" transform="translate(206.7734375,94.68359375)"/>
<path d="M0 0 C23.43 0 46.86 0 71 0 C71.20054405 23.3388705 71.20054405 23.3388705 71.24414062 33.26757812 C71.27406028 40.04943331 71.30949961 46.83095183 71.37719727 53.61254883 C71.43142145 59.07849 71.46140049 64.5440703 71.47438622 70.01025963 C71.48364331 72.09836194 71.50171986 74.18644392 71.52865028 76.27439308 C71.56481283 79.19353948 71.56995069 82.11118418 71.56762695 85.03051758 C71.58560333 85.89870117 71.60357971 86.76688477 71.62210083 87.66137695 C71.60127258 90.07063293 71.60127258 90.07063293 71 94 C67.49725084 97.36729932 64.08343763 97.36759142 59.3737793 97.34057617 C58.71897237 97.34093778 58.06416544 97.34129938 57.38951588 97.34167194 C55.28409843 97.33944478 53.17949238 97.31665633 51.07421875 97.29296875 C49.78181274 97.28994751 48.48940674 97.28692627 47.15783691 97.28381348 C42.33430994 97.26812836 37.51089687 97.22624444 32.6875 97.1875 C21.900625 97.125625 11.11375 97.06375 0 97 C0 64.99 0 32.98 0 0 Z " fill="#ffffff" transform="translate(235,171)"/>
<path d="M0 0 C-0.33 1.65 -0.66 3.3 -1 5 C-1.99 4.67 -2.98 4.34 -4 4 C-4.40992188 4.433125 -4.81984375 4.86625 -5.2421875 5.3125 C-5.78101563 5.869375 -6.31984375 6.42625 -6.875 7 C-7.40867188 7.556875 -7.94234375 8.11375 -8.4921875 8.6875 C-10 10 -10 10 -12 10 C-10.58426179 6.60812721 -8.95769034 4.90302459 -6 2.75 C-5.29875 2.22921875 -4.5975 1.7084375 -3.875 1.171875 C-2 0 -2 0 0 0 Z " fill="#5B5B5B" transform="translate(255,94)"/>
<path d="M0 0 C0.66 0 1.32 0 2 0 C2.17835515 4.54805635 1.99785435 7.8794254 0 12 C-2.31 12.33 -4.62 12.66 -7 13 C-5.824375 12.1028125 -5.824375 12.1028125 -4.625 11.1875 C-1.85425677 9.08914751 -1.85425677 9.08914751 0 6 C0.16699232 2.87478167 0.16699232 2.87478167 0 0 Z " fill="#676767" transform="translate(272,111)"/>
<path d="" fill="#E3E3E3" transform="translate(0,0)"/>
<path d="" fill="#FFFFFF" transform="translate(0,0)"/>
<path d="" fill="#FFFFFF" transform="translate(0,0)"/>
<path d="" fill="#FFFFFF" transform="translate(0,0)"/>
<path d="" fill="#FFFFFF" transform="translate(0,0)"/>
<path d="" fill="#FFFFFF" transform="translate(0,0)"/>
<path d="" fill="#FFFFFF" transform="translate(0,0)"/>
</svg>
