<?xml version="1.0" standalone="no"?>
<!DOCTYPE svg PUBLIC "-//W3C//DTD SVG 20010904//EN"
 "http://www.w3.org/TR/2001/REC-SVG-20010904/DTD/svg10.dtd">
<svg version="1.0" xmlns="http://www.w3.org/2000/svg"
 width="296.000000pt" height="280.000000pt" viewBox="0 0 296.000000 280.000000"
 preserveAspectRatio="xMidYMid meet">

<g transform="translate(0.000000,280.000000) scale(0.100000,-0.100000)"
fill="#ffffff" stroke="none">
<path d="M154 2690 c-30 -12 -54 -49 -54 -82 0 -51 35 -74 235 -152 104 -41
193 -80 198 -88 4 -7 108 -304 230 -660 l223 -647 -21 -23 c-26 -27 -155 -382
-155 -425 0 -40 29 -64 83 -70 l44 -5 -24 -44 c-70 -125 -21 -288 108 -358
130 -71 289 -19 362 118 33 62 31 165 -5 234 l-27 52 279 0 279 0 -26 -50
c-67 -129 -21 -283 107 -354 46 -26 65 -30 125 -30 60 0 79 4 125 30 127 71
174 225 108 353 l-26 49 51 5 c39 3 56 11 74 31 28 33 29 56 2 90 l-20 26
-720 0 c-395 0 -719 3 -719 8 0 4 16 54 36 112 l37 105 683 0 c683 0 683 0
705 21 14 15 80 205 210 610 104 324 189 599 189 612 0 13 -13 37 -29 53 l-29
29 -1014 0 -1013 0 -39 113 c-61 176 -34 153 -296 256 -127 50 -237 91 -243
90 -7 0 -22 -4 -33 -9z m1214 -727 l-3 -98 -235 0 -235 0 -32 90 c-17 50 -32
93 -32 98 -1 4 121 7 269 7 l271 0 -3 -97z m582 -3 l0 -100 -202 2 -203 3 -3
98 -3 97 206 0 205 0 0 -100z m673 48 c-8 -29 -23 -73 -32 -98 l-17 -45 -222
-3 -222 -2 0 100 0 100 254 0 255 0 -16 -52z m-1253 -433 l0 -115 -167 0 -168
0 -38 108 c-20 59 -37 110 -37 115 0 4 92 7 205 7 l205 0 0 -115z m580 0 l0
-115 -205 0 -205 0 0 108 c0 60 3 112 7 115 3 4 96 7 205 7 l198 0 0 -115z
m567 102 c-3 -8 -19 -60 -37 -115 l-31 -102 -159 0 -160 0 0 115 0 115 196 0
c160 0 195 -2 191 -13z m-1147 -492 l0 -95 -104 0 -104 0 -28 83 c-15 45 -29
88 -32 95 -3 9 27 12 132 12 l136 0 0 -95z m580 0 l0 -95 -205 0 -205 0 0 95
0 95 205 0 205 0 0 -95z m438 83 c-3 -7 -17 -50 -32 -95 l-28 -83 -99 0 -99 0
0 95 0 95 131 0 c101 0 130 -3 127 -12z m-1201 -793 c36 -10 73 -62 73 -101 0
-94 -89 -151 -170 -109 -87 45 -79 170 14 211 30 13 36 13 83 -1z m1016 -35
c63 -70 8 -190 -88 -190 -95 0 -150 117 -89 189 48 57 125 58 177 1z"/>
</g>
</svg>
