<?xml version="1.0" standalone="no"?>
<!DOCTYPE svg PUBLIC "-//W3C//DTD SVG 20010904//EN"
 "http://www.w3.org/TR/2001/REC-SVG-20010904/DTD/svg10.dtd">
<svg version="1.0" xmlns="http://www.w3.org/2000/svg"
 width="225.000000pt" height="225.000000pt" viewBox="0 0 225.000000 225.000000"
 preserveAspectRatio="xMidYMid meet">

<g transform="translate(0.000000,225.000000) scale(0.100000,-0.100000)"
fill="#ffffff" stroke="none">
<path d="M552 2228 c-9 -9 -12 -103 -12 -364 0 -193 3 -366 6 -384 9 -43 65
-97 109 -106 l35 -6 1 -427 c1 -234 4 -527 8 -649 l6 -224 33 -29 c51 -46 131
-37 169 20 17 24 18 74 21 668 l3 643 22 0 c34 0 92 44 111 84 14 30 16 77 14
402 -3 337 -4 368 -20 378 -23 14 -53 -3 -54 -30 -1 -11 -2 -128 -3 -261 l-1
-243 -40 0 -40 0 -2 268 -3 267 -22 3 c-38 5 -43 -32 -43 -294 l0 -244 -40 0
-40 0 0 258 c0 141 -4 263 -9 271 -6 9 -18 11 -35 7 l-26 -6 0 -168 c0 -92 -3
-211 -7 -264 l-6 -98 -34 0 -33 0 0 251 c0 153 -4 258 -10 270 -12 21 -40 25
-58 7z"/>
<path d="M1461 2222 c-19 -9 -48 -34 -65 -55 l-31 -39 -3 -619 -3 -619 61 0
60 0 0 -385 c0 -427 1 -437 62 -475 47 -30 104 -22 141 20 l27 30 0 1017 0
1016 -26 45 c-44 74 -146 104 -223 64z"/>
</g>
</svg>
