<?xml version="1.0" encoding="UTF-8"?>
<svg version="1.1" xmlns="http://www.w3.org/2000/svg" height="612px" viewBox="0 0 612 512" width="512px">
<path d="M0 0 C0.84500061 -0.00717041 1.69000122 -0.01434082 2.56060791 -0.02172852 C36.79713179 -0.17798756 67.23646574 14.11755441 91.625 37.625 C92.68460937 38.58986328 92.68460937 38.58986328 93.765625 39.57421875 C104.31636758 49.46017877 111.60529478 61.62376338 117.625 74.625 C118.3284846 75.94010523 119.03601866 77.25306386 119.75 78.5625 C132.51285207 104.36208508 130.80468642 133.67685014 130.625 161.625 C131.55248047 161.64481934 132.47996094 161.66463867 133.43554688 161.68505859 C136.90975027 161.76362316 140.38355956 161.85032999 143.85742188 161.94238281 C145.35473948 161.98042835 146.85214089 162.01532167 148.34960938 162.046875 C150.51462567 162.09306201 152.67907686 162.15096017 154.84375 162.2109375 C156.14248047 162.2423584 157.44121094 162.2737793 158.77929688 162.30615234 C171.27543768 163.34220871 179.51108028 168.20788859 187.625 177.625 C189.50565169 180.19631286 191.13407969 182.81184014 192.625 185.625 C193.13380172 186.40931837 193.64260344 187.19363674 194.16682339 188.00172234 C196.26585034 193.2173851 196.04889541 198.04388954 196.02613831 203.61697388 C196.03293498 204.83461579 196.03973164 206.05225771 196.04673427 207.30679786 C196.06242686 210.67930426 196.06469139 214.05133037 196.06115115 217.42383909 C196.0605383 221.06411382 196.07710352 224.70431729 196.09132385 228.34455872 C196.11622955 235.47457176 196.12448781 242.6045104 196.12616099 249.73456331 C196.12758746 255.53286003 196.1337567 261.33113226 196.14326286 267.12942123 C196.16968159 283.57911782 196.18352155 300.02875573 196.18127144 316.47847368 C196.18115157 317.36504026 196.1810317 318.25160683 196.1809082 319.16503906 C196.18078556 320.05269214 196.18066292 320.94034523 196.18053656 321.85489689 C196.17931796 336.23129818 196.2080068 350.60746344 196.2503233 364.98379649 C196.29345953 379.75558329 196.31413128 394.52725512 196.31154197 409.29910648 C196.31054743 417.58818901 196.31872755 425.87702427 196.35107613 434.16604996 C196.37845098 441.22575307 196.38486878 448.2850969 196.36454786 455.34483023 C196.35478058 458.94348363 196.35447562 462.54144856 196.3806076 466.14003563 C196.40871232 470.05071356 196.38980031 473.96039681 196.36671448 477.87112427 C196.38214517 478.99547099 196.39757586 480.11981772 196.41347414 481.27823555 C196.30535695 489.59860326 193.83692802 495.49844406 189.625 502.625 C188.965 502.625 188.305 502.625 187.625 502.625 C187.625 503.615 187.625 504.605 187.625 505.625 C186.965 505.625 186.305 505.625 185.625 505.625 C184.965 506.945 184.305 508.265 183.625 509.625 C182.965 509.625 182.305 509.625 181.625 509.625 C181.625 510.285 181.625 510.945 181.625 511.625 C169.24266243 522.61685711 153.34901224 520.76001291 137.83942926 520.64147925 C133.76095619 520.61910793 129.68270645 520.64319411 125.60424805 520.66116333 C117.63189799 520.68892816 109.66018452 520.67399219 101.68786518 520.64381216 C92.39375851 520.6099761 83.09980786 520.6165268 73.8056586 520.62400033 C57.21886233 520.63573863 40.63237038 520.60748642 24.0456543 520.55810547 C7.96806438 520.510246 -8.10911921 520.49610829 -24.18676758 520.51708984 C-41.71903209 520.53992888 -59.25110899 520.54374477 -76.78337127 520.51489365 C-78.65408661 520.51184214 -80.52480197 520.50880142 -82.39551735 520.50577164 C-83.77596627 520.50349819 -83.77596627 520.50349819 -85.18430304 520.50117882 C-91.65598011 520.49171091 -98.12757313 520.4953832 -104.59924889 520.50390244 C-112.48850616 520.51377428 -120.37738 520.50170484 -128.26654967 520.46211384 C-132.28834789 520.44242514 -136.30956335 520.43209635 -140.33139229 520.44789886 C-144.01851041 520.46208952 -147.70445665 520.44823008 -151.39142106 520.41269161 C-153.34505525 520.40086531 -155.29880014 520.41817566 -157.2523815 520.43678463 C-165.71978093 520.31567967 -171.35412798 518.33083517 -178.375 513.625 C-179.365 512.965 -180.355 512.305 -181.375 511.625 C-181.375 510.965 -181.375 510.305 -181.375 509.625 C-182.365 509.295 -183.355 508.965 -184.375 508.625 C-186.0625 507.25 -186.0625 507.25 -187.375 505.625 C-187.375 504.635 -187.375 503.645 -187.375 502.625 C-188.035 502.625 -188.695 502.625 -189.375 502.625 C-194.34515626 494.20631205 -196.25309752 487.6361439 -196.13690186 477.9047699 C-196.1462618 476.68129587 -196.15562174 475.45782184 -196.16526532 474.19727284 C-196.1849173 470.83582835 -196.17803952 467.47642429 -196.15934801 464.11510813 C-196.14568508 460.47697001 -196.16676949 456.83900094 -196.18322754 453.20089722 C-196.20981952 446.08797378 -196.20418442 438.97543156 -196.18675169 431.86249357 C-196.1731676 426.07908965 -196.17137821 420.2957921 -196.17789459 414.51237679 C-196.17881399 413.68734561 -196.17973339 412.86231443 -196.18068065 412.0122823 C-196.18259911 410.33594072 -196.1845444 408.65959918 -196.1865162 406.98325766 C-196.20359945 391.28776391 -196.18399395 375.5924809 -196.151714 359.89702172 C-196.12490472 346.44532116 -196.12957071 332.9939313 -196.15722656 319.54223633 C-196.18937323 303.89903325 -196.20195697 288.25601451 -196.18355298 272.61278301 C-196.1816418 270.94312452 -196.17975557 269.273466 -196.17789459 267.60380745 C-196.17696894 266.78242617 -196.17604329 265.96104488 -196.17508958 265.11477325 C-196.16992064 259.34141309 -196.17862811 253.56817039 -196.19277191 247.79482841 C-196.20964128 240.75459976 -196.20495985 233.71477221 -196.17308745 226.67458921 C-196.15737446 223.08617153 -196.1510465 219.49842134 -196.17098236 215.91000938 C-196.19230785 212.01238189 -196.16675765 208.11583497 -196.13690186 204.21824646 C-196.15028619 203.09507961 -196.16367052 201.97191276 -196.17746043 200.81471056 C-196.00377518 189.09207977 -190.4046999 181.04138666 -182.54296875 172.71875 C-179.92252689 170.18801696 -177.55817899 168.39343277 -174.375 166.625 C-173.385 166.068125 -172.395 165.51125 -171.375 164.9375 C-166.07038374 162.61673039 -160.74189428 162.47445562 -155.0078125 162.30859375 C-154.32822479 162.28781265 -153.64863708 162.26703156 -152.94845581 162.24562073 C-150.79906334 162.1807637 -148.6495593 162.12154059 -146.5 162.0625 C-145.0338431 162.01925388 -143.56769706 161.97563775 -142.1015625 161.93164062 C-138.52615725 161.82514896 -134.95062963 161.72370591 -131.375 161.625 C-131.35518066 160.66948242 -131.33536133 159.71396484 -131.31494141 158.72949219 C-130.62822997 126.69292166 -130.62822997 126.69292166 -129.4375 115 C-129.36289551 114.2584668 -129.28829102 113.51693359 -129.21142578 112.75292969 C-127.20913517 95.10492861 -120.70677825 78.61356754 -111.375 63.625 C-110.71920842 62.46026789 -110.06695905 61.29353544 -109.41796875 60.125 C-102.43638075 47.84598641 -91.7841131 35.97073678 -80.375 27.625 C-79.715 27.625 -79.055 27.625 -78.375 27.625 C-78.375 26.965 -78.375 26.305 -78.375 25.625 C-67.62987341 17.54575292 -55.95848227 11.29018306 -43.375 6.625 C-42.19164062 6.16988037 -42.19164062 6.16988037 -40.984375 5.70556641 C-27.51493024 0.73763624 -14.19981535 0.04845795 0 0 Z M-28.375 37.625 C-29.56351562 38.02460937 -30.75203125 38.42421875 -31.9765625 38.8359375 C-38.41819329 41.31604858 -44.47028749 44.03945106 -50.375 47.625 C-50.375 48.285 -50.375 48.945 -50.375 49.625 C-51.09300781 49.86089844 -51.81101563 50.09679687 -52.55078125 50.33984375 C-55.84117742 51.83713329 -57.9368608 53.71280526 -60.5625 56.1875 C-65.21033448 60.54266724 -65.21033448 60.54266724 -67.375 61.625 C-67.375 62.285 -67.375 62.945 -67.375 63.625 C-68.035 63.625 -68.695 63.625 -69.375 63.625 C-70.78805508 65.05424233 -70.78805508 65.05424233 -72.203125 66.95703125 C-72.75291016 67.66754639 -73.30269531 68.37806152 -73.86914062 69.11010742 C-74.44857422 69.87814697 -75.02800781 70.64618652 -75.625 71.4375 C-76.21474609 72.21778564 -76.80449219 72.99807129 -77.41210938 73.80200195 C-97.77560575 101.13508012 -96.375 127.60335325 -96.375 162.625 C-32.685 162.625 31.005 162.625 96.625 162.625 C97.11263047 118.60295636 97.11263047 118.60295636 82.0625 79.5 C81.69874268 78.88431152 81.33498535 78.26862305 80.96020508 77.63427734 C78.58443185 73.77957063 75.89636852 70.73719119 72.625 67.625 C72.068125 66.861875 71.51125 66.09875 70.9375 65.3125 C70.504375 64.755625 70.07125 64.19875 69.625 63.625 C68.965 63.625 68.305 63.625 67.625 63.625 C67.625 62.965 67.625 62.305 67.625 61.625 C65.9853279 60.25860658 64.31389872 58.9300581 62.625 57.625 C62.026875 57.00625 61.42875 56.3875 60.8125 55.75 C55.361354 50.45460103 49.38577071 46.82569225 42.625 43.4375 C41.96081055 43.10459961 41.29662109 42.77169922 40.61230469 42.42871094 C27.95006884 36.23759316 16.65465235 34.26960607 2.59667969 34.30932617 C0.26189334 34.31248391 -2.0716197 34.28897353 -4.40625 34.26367188 C-12.8562798 34.22746887 -20.33123606 34.74222839 -28.375 37.625 Z M-130.375 196.625 C-134.99244447 201.72849126 -135.43187835 206.97971308 -135.375 213.625 C-134.91078362 220.52716461 -131.48330037 225.11889764 -126.375 229.625 C-120.98368695 232.66374009 -115.23326485 234.35990759 -109.078125 233.1875 C-101.64758374 230.99324621 -97.20698081 227.56376115 -93.5 220.8125 C-90.960821 215.25753236 -90.32303829 211.38854004 -92.00390625 205.375 C-94.28340859 199.32358572 -97.78809124 194.93230051 -103.375 191.625 C-113.24270582 188.10289851 -122.65876694 189.44990536 -130.375 196.625 Z M97.625 195.625 C95.98702664 197.89545812 94.87406735 200.08225574 93.625 202.625 C93.2125 203.429375 92.8 204.23375 92.375 205.0625 C90.34034217 212.01424758 91.87327754 217.20431425 94.625 223.625 C95.285 223.625 95.945 223.625 96.625 223.625 C96.851875 224.2025 97.07875 224.78 97.3125 225.375 C99.71814302 229.49895946 102.92306009 231.61598419 107.4375 232.9375 C114.38091862 234.39927234 120.38492827 232.92164167 126.625 229.625 C131.45187962 225.34662943 134.89204044 221.87889244 135.375 215.3125 C135.83304972 207.63762242 135.35848328 202.49651521 130.42578125 196.421875 C126.10957582 192.11503227 120.72993308 190.07561838 114.69921875 189.58984375 C108.19911363 189.70001502 102.60316964 191.34145868 97.625 195.625 Z " fill="#ffffff" transform="translate(222.375,20.375)"/>
<path d="M0 0 C0.66 0.33 1.32 0.66 2 1 C-7.720526 12.59114268 -7.720526 12.59114268 -14 16 C-12.34136495 11.67495164 -9.128959 8.90581175 -5.875 5.75 C-5.31167969 5.19570313 -4.74835938 4.64140625 -4.16796875 4.0703125 C-2.78313972 2.70895515 -1.39216796 1.35385141 0 0 Z " fill="#828282" transform="translate(137,52)"/>
<path d="M0 0 C0.66 0.33 1.32 0.66 2 1 C-1.88476156 6.52045063 -6.8023806 10.76937956 -12 15 C-10.58397787 11.85093585 -8.86264918 9.50476328 -6.5625 6.9375 C-5.96566406 6.26589844 -5.36882813 5.59429687 -4.75390625 4.90234375 C-3.20703058 3.2245521 -1.62828434 1.59840757 0 0 Z " fill="#6A6A6A" transform="translate(44,189)"/>
</svg>
