<?xml version="1.0" standalone="no"?>
<!DOCTYPE svg PUBLIC "-//W3C//DTD SVG 20010904//EN"
 "http://www.w3.org/TR/2001/REC-SVG-20010904/DTD/svg10.dtd">
<svg version="1.0" xmlns="http://www.w3.org/2000/svg"
 width="512.000000pt" height="512.000000pt" viewBox="0 0 512.000000 512.000000"
 preserveAspectRatio="xMidYMid meet">

<g transform="translate(0.000000,512.000000) scale(0.100000,-0.100000)"
fill="#ffffff" stroke="none">
<path d="M1064 5105 c-232 -50 -422 -220 -499 -446 -28 -81 -29 -91 -33 -321
l-4 -238 -114 0 c-130 0 -162 -11 -194 -63 -19 -30 -20 -53 -20 -461 0 -412 1
-430 20 -461 32 -52 72 -65 199 -65 l111 0 0 -836 0 -836 -31 -36 c-18 -20
-44 -61 -58 -92 -25 -53 -26 -64 -29 -258 -3 -171 -1 -210 14 -255 51 -155
186 -257 342 -257 l52 0 0 -195 c0 -301 -19 -287 371 -283 l281 3 29 33 29 32
0 205 0 205 1030 0 1030 0 0 -205 0 -205 29 -32 29 -33 281 -3 c390 -4 371
-18 371 283 l0 195 53 0 c155 0 290 102 341 257 15 45 17 84 14 255 -3 194 -4
205 -29 258 -14 31 -40 72 -58 92 l-31 36 0 836 0 836 111 0 c127 0 167 13
199 65 19 31 20 49 20 459 0 471 0 468 -63 506 -27 17 -51 20 -149 20 l-116 0
-4 238 c-4 230 -5 240 -33 321 -80 232 -281 407 -519 450 -95 17 -2892 14
-2972 -4z m2281 -354 c70 -32 105 -86 105 -161 0 -75 -35 -129 -105 -161 -38
-18 -82 -19 -785 -19 -703 0 -747 1 -785 19 -70 32 -105 86 -105 161 0 75 35
129 105 161 38 18 82 19 785 19 703 0 747 -1 785 -19z m-967 -1528 l-3 -828
-712 -3 -713 -2 0 830 0 830 715 0 715 0 -2 -827z m1792 -3 l0 -830 -712 2
-713 3 -3 828 -2 827 715 0 715 0 0 -830z m-2683 -1211 c30 -15 52 -35 71 -67
26 -45 27 -52 27 -187 0 -163 -12 -199 -78 -243 -39 -26 -45 -27 -221 -30
-237 -4 -285 11 -327 102 -25 55 -27 277 -4 333 41 98 81 113 309 113 162 0
184 -2 223 -21z m2588 2 c85 -39 105 -88 105 -258 0 -142 -14 -191 -65 -231
-48 -38 -90 -44 -281 -40 -176 3 -182 4 -221 30 -66 44 -78 80 -78 243 0 134
1 142 27 186 47 79 79 89 293 89 153 0 186 -3 220 -19z"/>
</g>
</svg>
